<?xml version="1.0" encoding="UTF-8" standalone="no"?>
<svg
   xmlns:dc="http://purl.org/dc/elements/1.1/"
   xmlns:cc="http://creativecommons.org/ns#"
   xmlns:rdf="http://www.w3.org/1999/02/22-rdf-syntax-ns#"
   xmlns:svg="http://www.w3.org/2000/svg"
   xmlns="http://www.w3.org/2000/svg"
   xmlns:sodipodi="http://sodipodi.sourceforge.net/DTD/sodipodi-0.dtd"
   xmlns:inkscape="http://www.inkscape.org/namespaces/inkscape"
   id="c0d3c4b8-dd8f-4817-a215-50c6426c8f4b"
   data-name="White V"
   viewBox="0 0 289.09 65.96"
   version="1.1"
   sodipodi:docname="heard-logo.svg"
   inkscape:version="0.92.4 (5da689c313, 2019-01-14)">
  <metadata
     id="metadata4848">
    <rdf:RDF>
      <cc:Work
         rdf:about="">
        <dc:format>image/svg+xml</dc:format>
        <dc:type
           rdf:resource="http://purl.org/dc/dcmitype/StillImage" />
      </cc:Work>
    </rdf:RDF>
  </metadata>
  <defs
     id="defs4846" />
  <sodipodi:namedview
     pagecolor="#ffffff"
     bordercolor="#666666"
     borderopacity="1"
     objecttolerance="10"
     gridtolerance="10"
     guidetolerance="10"
     inkscape:pageopacity="0"
     inkscape:pageshadow="2"
     inkscape:window-width="1920"
     inkscape:window-height="1137"
     id="namedview4844"
     showgrid="false"
     inkscape:zoom="4.9811478"
     inkscape:cx="140.78804"
     inkscape:cy="45.371166"
     inkscape:window-x="-8"
     inkscape:window-y="-8"
     inkscape:window-maximized="1"
     inkscape:current-layer="c0d3c4b8-dd8f-4817-a215-50c6426c8f4b" />
  <title
     id="title4767">LibrarySearchLogo</title>
  <path
     d="m 46.031597,17.404539 c 0,0.51637 0,1.782309 0,2.023837 h 0.879166 c 0.835209,0 2.004501,0 2.470458,0.433084 0.879168,0.907811 -0.272541,1.740666 -1.353916,3.123204 -1.705583,2.148765 -0.641792,3.54796 0.47475,2.798391 a 29.249875,27.709069 0 0 1 2.743,-1.765651 c 1.42425,-0.641298 2.347375,1.074382 0.879167,2.931648 -0.589042,0.766226 -1.714376,1.724009 -2.444084,2.748419 -0.879166,1.224297 -0.47475,2.873348 1.248417,1.66571 1.995708,-1.415853 2.699042,0.782883 0.589041,2.848361 -1.934166,1.965538 -3.103458,3.373062 -2.540791,5.088742 0.211,0.624641 0.457167,1.307582 0.676959,1.907237 a 0.36045834,0.34147034 0 0 0 0.07913,0.108271 l -0.05275,0.08329 a 0.43079166,0.4080987 0 0 0 -0.184625,0 H 48.247103 L 46.866811,37.85945 c -0.211,-0.51637 -0.492334,-0.882825 -1.811083,-1.265938 l -0.659376,-0.183229 a 0.51870834,0.49138415 0 0 0 -0.501124,0.08329 l -0.879167,0.599655 c -0.79125,0.549684 -1.186875,0.732912 -1.52975,0.649627 a 0.53629167,0.50804125 0 0 1 -0.386833,-0.57467 c 0,0 0,-0.07496 0,-0.09161 a 8.3696667,7.9287748 0 0 0 1.257208,-3.989373 l 0.05275,-0.06663 a 0.53629167,0.50804125 0 0 1 0.668167,-0.28317 c 0.334084,0.108271 0.562667,0.45807 0.879167,1.332567 l 0.351666,0.91614 a 0.553875,0.52469834 0 0 0 0.439584,0.366456 l 1.116542,0.316485 a 0.290125,0.27484198 0 0 1 0.105499,0.06663 l 0.07912,-0.07495 a 0.35166666,0.3331418 0 0 1 -0.07912,-0.108271 L 45.090889,33.31207 A 5.1343334,4.8638702 0 0 0 43.156723,30.588635 C 42.145681,29.905695 40.589556,29.372668 39.701598,28.922927 37.020139,27.47376 37.468515,25.383295 38.998264,25.46658 a 12.492958,11.834863 0 0 1 2.866083,0.832855 c 1.644042,0.57467 1.696793,-1.349224 -0.430791,-2.823377 -2.707833,-1.882251 -3.226542,-2.865019 -2.593542,-3.622917 0.334083,-0.408098 1.266,-0.408098 2.189126,-0.408098 h 0.738499 c 0,-0.508042 0,-1.474153 0,-2.032165 H 23.929347 v 2.015508 a 13.020459,12.334576 0 0 1 1.31875,0.04997 c 1.494583,0.124929 2.6375,0.832855 3.815583,3.706204 1.037417,2.598506 9.618083,23.17834 10.49725,25.368747 h 8.686167 c 0.747292,-1.815623 9.125749,-22.195572 10.488459,-25.460361 1.213249,-2.906663 2.505624,-3.473004 3.947458,-3.589604 0.342875,0 0.764874,0 1.125333,0 v -2.090474 z m -6.382751,19.014069 c -1.134124,-0.383114 -1.573707,-0.716255 -1.705582,-1.832281 0,-0.28317 0,-0.666283 0,-0.666283 0,0 0.228583,-0.316485 0.421999,-0.533027 0.756084,-0.832854 1.309959,-0.91614 2.488042,-0.649627 l 1.019834,0.208214 a 7.7894166,7.3790908 0 0 1 -0.325293,1.990522 7.9125,7.4956905 0 0 1 -0.879166,1.840609 L 39.648846,36.418608 M 67.430514,55.332733 H 20.298388 V 10.600118 h 47.132126 z"
     id="path4769"
     inkscape:connector-curvature="0"
     style="fill:#ffffff;stroke-width:0.85569733" />
  <path
     d="M 24.219472,61.254328 H 23.63043 23.234805 22.847972 v 0.274842 h 0.15825 c 0.290125,0 0.342875,0.0583 0.342875,0.141586 a 0.9495,0.89948286 0 0 1 -0.07913,0.316484 l -0.975875,2.356979 -1.046209,-2.498564 a 0.80883333,0.76622614 0 0 1 -0.05275,-0.16657 c 0,-0.0583 0.09671,-0.1166 0.272542,-0.1166 h 0.193417 v -0.274842 h -0.413209 -0.562666 -1.011042 v 0.274842 h 0.114292 a 0.41320833,0.39144161 0 0 1 0.47475,0.308156 l 1.608875,3.697873 h 0.298916 v 0 l 0.58025,-1.224295 0.123084,-0.274843 c 0.325291,-0.741239 0.993458,-2.290349 1.028625,-2.348649 A 0.27254166,0.25818489 0 0 1 24.1843,61.537499 h 0.114292 v -0.274842 h -0.05275 z"
     id="path4771"
     inkscape:connector-curvature="0"
     style="fill:#ffffff;stroke-width:0.85569733" />
  <path
     d="m 25.26568,65.043816 a 1.00225,0.94945413 0 0 1 0.07033,-0.249856 v 0 l 0.06154,-0.191556 0.184626,-0.57467 h 1.336333 l 0.228583,0.649626 a 2.0748333,1.9655366 0 0 1 0.123083,0.4081 c 0,0.116599 -0.228583,0.124927 -0.298917,0.124927 h -0.123083 v 0.274842 h 0.193417 0.756083 c 0.298917,0 0.58025,0 0.879167,0 h 0.06154 v -0.28317 h -0.08792 a 0.342875,0.32481325 0 0 1 -0.360459,-0.208214 c -0.07033,-0.149913 -0.131875,-0.324813 -0.193416,-0.491384 v -0.108272 l -1.169292,-2.989947 v 0 l -0.06154,-0.149914 c 0,-0.04997 -0.05275,-0.04164 -0.08792,0 h -0.597834 v 0 c 0,0.141586 -0.123083,0.366456 -0.202208,0.566341 v 0.09161 l -0.07912,0.208213 -0.993458,2.715106 a 0.51870834,0.49138415 0 0 1 -0.492334,0.349799 h -0.08792 v 0.28317 h 0.06154 0.668167 0.7385 0.07033 v -0.274841 h -0.123083 c -0.123083,0 -0.413208,0 -0.413208,-0.166572 m 0.47475,-1.457495 0.465958,-1.457495 0.509917,1.474152 z"
     id="path4773"
     inkscape:connector-curvature="0"
     style="fill:#ffffff;stroke-width:0.85569733" />
  <path
     d="m 34.092513,61.270985 h -1.301166 v 0.274843 h 0.193416 c 0.175833,0 0.47475,0.06663 0.47475,0.50804 0,0 0,1.66571 0,2.107122 L 30.75168,61.270985 h -1.301166 v 0.258185 h 0.131874 a 0.45716667,0.43308434 0 0 1 0.325292,0.133257 0.53629167,0.50804125 0 0 1 0.149458,0.366456 v 2.498563 c 0,0.449742 -0.07913,0.707927 -0.47475,0.707927 H 29.43293 v 0.266513 h 1.758334 V 65.227044 H 31.01543 c -0.404417,0 -0.518708,-0.141584 -0.518708,-0.641297 0,0 0,-1.832281 0,-2.298679 l 3.121041,3.331418 v 0 h 0.325292 v -0.0583 a 4.009,3.7978165 0 0 1 0,-0.591327 v -2.690124 c 0,-0.699598 0.272542,-0.699598 0.47475,-0.699598 h 0.149458 v -0.266514 h -0.47475"
     id="path4775"
     inkscape:connector-curvature="0"
     style="fill:#ffffff;stroke-width:0.85569733" />
  <path
     d="m 39.45543,61.828998 a 2.7342084,2.5901775 0 0 0 -1.84625,-0.57467 h -0.967084 -0.641791 -0.404417 v 0.274842 h 0.140667 c 0.254958,0 0.404417,0.04997 0.404417,0.283171 v 3.098219 c 0,0.266513 -0.167042,0.291499 -0.378042,0.291499 h -0.140666 v 0.266513 h 0.3165 0.712125 c 0.422,0 0.879166,0 1.134125,0 A 2.2067083,2.0904648 0 0 0 39.45543,64.91056 2.2594584,2.1404361 0 0 0 40.167555,63.36145 2.083625,1.9738651 0 0 0 39.45543,61.828998 m -0.298917,1.665709 a 1.9077917,1.8072943 0 0 1 -0.395625,1.149339 1.450625,1.37421 0 0 1 -1.160499,0.483056 c -0.422001,0 -0.597834,0 -0.597834,-0.416427 v -3.073234 h 0.07033 0.307709 a 1.819875,1.7240088 0 0 1 1.257208,0.358128 2.0132916,1.9072368 0 0 1 0.5275,1.499138"
     id="path4777"
     inkscape:connector-curvature="0"
     style="fill:#ffffff;stroke-width:0.85569733" />
  <path
     d="m 44.537013,64.45249 c -0.08791,0.324813 -0.184624,0.483055 -0.351666,0.558012 a 1.899,1.7989657 0 0 1 -0.764875,0.07496 v 0 c -0.439583,0 -0.703334,0 -0.703334,-0.333142 v -1.290925 h 0.712125 c 0.378042,0 0.404417,0.149914 0.448376,0.508041 v 0 0.04997 l 0.272541,-0.0583 v 0 c 0,-0.241527 0,-0.433084 0,-0.641297 0,-0.208214 0,-0.383113 0,-0.624641 v -0.04997 h -0.298916 v 0.04164 c 0,0.316485 -0.140667,0.408098 -0.465959,0.408098 H 42.67318 v -1.440837 h 0.808834 c 0.624208,0 0.668166,0.191556 0.694541,0.566341 v 0.01666 l 0.272542,-0.06663 v 0 a 8.07075,7.6456043 0 0 1 0,-0.766226 V 61.25433 h -0.782459 -0.879166 -0.879167 -0.694542 v 0.274842 h 0.140667 c 0.254958,0 0.413208,0.04997 0.413208,0.28317 v 3.09822 c 0,0.249856 -0.131874,0.299827 -0.369249,0.299827 h -0.140667 v 0.258185 h 3.358416 v -0.04165 l 0.05275,-0.324813 a 5.881625,5.5717966 0 0 1 0.1055,-0.591327 v 0 0 l -0.272541,-0.06663 v 0.04164 z"
     id="path4779"
     inkscape:connector-curvature="0"
     style="fill:#ffffff;stroke-width:0.85569733" />
  <path
     d="M 53.917722,63.169894 A 1.0374167,0.9827683 0 0 0 54.796889,62.237097 0.87916667,0.8328545 0 0 0 54.462805,61.537499 1.819875,1.7240088 0 0 0 53.32868,61.254328 H 52.880305 52.335222 51.79893 51.306597 v 0.274842 h 0.140667 c 0.254958,0 0.413208,0.04997 0.413208,0.283171 v 3.098219 c 0,0.241527 -0.149458,0.283171 -0.413208,0.283171 h -0.140667 v 0.274841 h 0.527499 0.624209 0.597834 0.465958 a 1.6704167,1.5824236 0 0 0 1.072583,-0.358128 1.186875,1.1243536 0 0 0 0.448375,-0.832854 1.055,0.99942536 0 0 0 -0.325291,-0.732911 1.4945833,1.4158526 0 0 0 -0.817625,-0.358128 m -0.905542,-0.1166 h -0.254958 v -1.465824 h 0.3165 c 0.386833,0 0.782458,0.09162 0.782458,0.741241 0,0.474727 -0.281334,0.699598 -0.879167,0.699598 m 1.125334,1.232624 a 0.87916667,0.8328545 0 0 1 -0.879167,0.832854 c -0.439584,0 -0.509917,-0.05829 -0.509917,-0.449741 v -1.274267 h 0.342875 a 1.1517084,1.0910394 0 0 1 0.747292,0.208213 0.87916667,0.8328545 0 0 1 0.290125,0.674613"
     id="path4781"
     inkscape:connector-curvature="0"
     style="fill:#ffffff;stroke-width:0.85569733" />
  <path
     d="m 58.252014,61.254328 h -0.967084 -0.501125 -0.47475 v 0.274842 h 0.140667 c 0.254958,0 0.404417,0.04997 0.404417,0.283171 v 3.098219 c 0,0.241527 -0.149459,0.283171 -0.404417,0.283171 h -0.140667 v 0.274841 h 0.465959 0.509916 1.028625 v -0.274841 h -0.140666 c -0.254959,0 -0.404418,-0.04997 -0.404418,-0.283171 v -3.089891 c 0,-0.241527 0.149459,-0.28317 0.404418,-0.28317 h 0.140666 v -0.274842 h -0.05275 z"
     id="path4783"
     inkscape:connector-curvature="0"
     style="fill:#ffffff;stroke-width:0.85569733" />
  <path
     d="m 63.017097,64.435833 a 1.0462083,0.99109683 0 0 1 -0.167041,0.349798 0.79125,0.74956905 0 0 1 -0.545084,0.283171 3.63975,3.4480176 0 0 1 -0.738501,0 c -0.228582,0 -0.325291,-0.108271 -0.325291,-0.283171 v -2.981618 c 0,-0.266514 0.140667,-0.266514 0.36925,-0.266514 h 0.211001 v -0.274842 h -2.048459 v 0.274842 h 0.140667 c 0.26375,0 0.413208,0.04997 0.413208,0.28317 v 3.031591 c 0,0.316485 -0.193417,0.349799 -0.413208,0.349799 h -0.140667 v 0.274842 h 0.879167 0.826416 0.782458 0.826418 v 0 c 0.05275,-0.224871 0.08791,-0.441413 0.131874,-0.641298 l 0.07913,-0.39977 h -0.281332 z"
     id="path4785"
     inkscape:connector-curvature="0"
     style="fill:#ffffff;stroke-width:0.85569733" />
  <path
     d="m 49.803222,64.877245 -0.47475,-0.616311 -0.325292,-0.416428 a 1.2835833,1.2159676 0 0 0 -0.351667,-0.324813 1.3890834,1.3159102 0 0 0 0.879167,-1.149339 1.0198333,0.96611124 0 0 0 -0.47475,-0.882827 2.030875,1.9238939 0 0 0 -1.063791,-0.22487 H 46.99868 46.374471 45.978846 v 0.274842 h 0.167043 c 0.210999,0 0.386832,0 0.386832,0.39977 v 2.998276 c 0,0.258186 -0.281332,0.274842 -0.360457,0.274842 h -0.167042 v 0.266514 h 2.05725 V 65.202059 H 47.89543 c -0.281333,0 -0.457166,0 -0.457166,-0.424756 V 63.65295 h 0.281332 a 0.26375,0.24985635 0 0 1 0.219792,0.116599 c 0.246167,0.358128 0.562667,0.832855 1.028625,1.382538 a 0.87916667,0.8328545 0 0 0 0.800042,0.324814 h 0.703333 v -0.266514 h -0.05275 A 0.62420834,0.5913267 0 0 1 49.79443,64.877245 m -1.204459,-2.498563 a 1.00225,0.94945413 0 0 1 -0.237375,0.699598 0.87916667,0.8328545 0 0 1 -0.659375,0.208213 h -0.26375 v -1.665709 0 h 0.272542 a 0.79125,0.74956905 0 0 1 0.879166,0.832855"
     id="path4787"
     inkscape:connector-curvature="0"
     style="fill:#ffffff;stroke-width:0.85569733" />
  <path
     d="m 67.588764,61.246 h -3.428751 -0.351666 v 0 h -0.184626 -0.04396 v 0.06663 a 2.6990417,2.5568633 0 0 1 0,0.341471 v 0 l -0.06154,0.483055 v 0.09994 h 0.298917 v -0.04165 c 0.08792,-0.424756 0.1055,-0.483056 0.527501,-0.491385 h 0.879166 v 3.031592 c 0,0.424755 -0.140667,0.449741 -0.465958,0.449741 h -0.175833 v 0.274841 h 0.536291 0.571459 0.536291 0.483541 v -0.274833 h -0.17583 c -0.272541,0 -0.465958,0 -0.465958,-0.45807 v -3.048247 h 0.879166 c 0.386834,0 0.404418,0.324813 0.413209,0.499712 v 0.0583 l 0.290125,-0.06663 v -0.508042 c 0,-0.116599 0,-0.249856 0,-0.366456 v -0.0583 z"
     id="path4789"
     inkscape:connector-curvature="0"
     style="fill:#ffffff;stroke-width:0.85569733" />
  <path
     d="m 94.139596,51.659844 c 0,2.273694 0.211,3.231476 0.92313,3.747846 0.87916,0.632969 2.26825,0.632969 4.16725,0.632969 1.899004,0 3.912294,-0.558012 4.879374,-1.557438 a 23.89575,22.636986 0 0 0 2.39133,-3.906087 l 0.633,0.1166 c -0.211,1.116024 -1.13412,5.180354 -1.4682,6.254737 H 86.93043 v -0.541355 c 3.516667,-0.441414 3.868334,-0.91614 3.868334,-5.221999 V 36.80172 c 0,-4.305858 -0.334083,-4.780585 -3.868334,-5.221997 V 31.02171 h 11.165416 v 0.558013 c -3.61337,0.441412 -3.95625,0.916139 -3.95625,5.221997 z"
     id="path4791"
     inkscape:connector-curvature="0"
     style="fill:#ffffff;stroke-width:0.85569733" />
  <path
     d="m 116.25944,51.143475 c 0,4.305858 0.33408,4.780585 3.78041,5.221997 v 0.558013 h -10.92804 v -0.516369 c 3.44633,-0.441414 3.78921,-0.91614 3.78921,-5.221999 V 36.80172 c 0,-4.305858 -0.33409,-4.780585 -3.78921,-5.221997 V 31.02171 h 10.93683 v 0.558013 c -3.44633,0.441412 -3.78042,0.916139 -3.78042,5.221997 v 14.341755 z"
     id="path4793"
     inkscape:connector-curvature="0"
     style="fill:#ffffff;stroke-width:0.85569733" />
  <path
     d="m 134.22081,31.02171 c 2.82212,0 4.75629,0.474728 6.15417,1.390867 a 5.275,4.997127 0 0 1 2.18912,4.380814 c 0,3.506318 -3.51666,5.221999 -5.54754,5.696726 v 0.08329 c 3.86833,0.516369 7.31467,2.665134 7.31467,6.662836 a 7.0948751,6.7211359 0 0 1 -3.9123,6.138137 c -2.1012,1.116026 -4.79145,1.515795 -8.03558,1.515795 h -9.40708 v -0.483054 c 3.51666,-0.441414 3.86833,-0.916141 3.86833,-5.221999 V 36.80172 c 0,-4.305858 -0.29891,-4.780585 -3.61338,-5.221997 V 31.02171 Z m -4.07933,11.435092 h 2.6375 c 4.03537,0 6.05745,-1.748994 6.05745,-5.221997 0,-2.390293 -1.05499,-5.421883 -6.0135,-5.421883 a 6.1541667,5.8299815 0 0 0 -2.31221,0.199885 c -0.25495,0.116599 -0.37804,0.274842 -0.37804,1.074382 v 9.369613 z m 0,0.832855 V 52.1429 c 0,3.14819 0.54508,3.906088 3.61337,3.906088 3.57821,0 6.55859,-1.873923 6.55859,-6.254738 0,-4.380814 -3.32325,-6.537907 -7.73667,-6.537907 z"
     id="path4795"
     inkscape:connector-curvature="0"
     style="fill:#ffffff;stroke-width:0.85569733" />
  <path
     d="m 190.3556,52.184543 c -1.67921,-4.06433 -3.51666,-9.1614 -5.5915,-14.158526 l -3.11225,-7.612291 -0.54508,0.158243 -8.62462,20.996262 c -1.23084,2.97329 -1.81109,3.897759 -3.26172,4.397471 -0.57146,0 -0.87916,-0.241527 -1.75833,-1.174324 a 57.963459,54.910097 0 0 1 -3.78921,-4.663986 c -1.25721,-1.757323 -2.98916,-4.464099 -3.70129,-5.655081 3.51667,-1.357554 5.67942,-3.822803 5.67942,-7.012635 a 6.1541667,5.8299815 0 0 0 -2.77817,-5.09707 c -1.60008,-0.999425 -3.95625,-1.357553 -6.60254,-1.357553 H 145.8346 v 0.558012 c 3.35842,0.441413 3.7013,0.91614 3.7013,5.221998 v 14.358412 c 0,4.305858 -0.33409,4.780585 -3.86834,5.221997 v 0.558013 h 10.93683 v -0.516369 c -3.44633,-0.441414 -3.78042,-0.91614 -3.78042,-5.221999 v -5.813324 h 1.8023 c 1.46821,0 2.26825,0.274842 3.02433,1.474152 1.266,1.990522 2.73421,4.539058 4.39583,6.81275 1.66163,2.273693 3.01555,3.089891 5.71459,3.248132 0.80883,0.04997 1.45941,0 1.95175,0 h 6.89266 v -0.499711 l -0.87916,-0.199886 c -2.26825,-0.474727 -2.6375,-0.957782 -2.02208,-3.331418 0.42199,-1.590752 1.46821,-4.705628 1.97812,-5.938252 h 9.00267 c 1.22204,3.064904 2.44408,6.17978 2.7342,7.129234 0.37804,1.232625 0.25497,1.665709 -1.266,1.990523 l -1.38908,0.358127 v 0.558012 h 10.04888 v -0.56634 c -2.6375,-0.599656 -3.15621,-0.91614 -4.50134,-4.164274 m -35.57108,-7.61229 h -1.97813 V 33.087189 c 0,-0.832854 0.12309,-0.999425 0.37804,-1.074382 a 7.12125,6.7461214 0 0 1 2.26826,-0.199885 c 3.51666,0 6.55858,1.83228 6.55858,6.213095 0,2.190407 -0.633,4.164272 -2.44408,5.496839 -1.17809,0.832855 -2.82213,1.03274 -4.79146,1.03274 m 21.35495,1.116024 4.03538,-10.144167 h 0.0791 l 4.03538,10.160824 z"
     id="path4797"
     inkscape:connector-curvature="0"
     style="fill:#ffffff;stroke-width:0.85569733" />
  <path
     d="m 238.41964,36.80172 c 0,-4.305858 -0.33408,-4.780585 -3.70129,-5.221997 V 31.02171 h 18.2515 c 0,0.674612 0.25496,3.589603 0.46596,5.829982 l -0.633,0.116599 a 9.4774169,8.9781715 0 0 0 -1.89021,-3.66456 c -0.633,-0.674612 -1.89021,-1.390867 -5.09037,-1.390867 h -2.77817 c -1.17808,0 -1.25721,0.08329 -1.25721,1.199311 v 9.702755 h 4.27275 c 3.61337,0 3.74525,-0.399771 4.58046,-3.331419 h 0.633 v 7.887133 h -0.633 c -0.422,-1.515795 -0.67696,-2.34865 -1.266,-2.790062 -0.58904,-0.441413 -1.51217,-0.558013 -3.32325,-0.558013 h -4.24638 v 7.637275 c 0,2.273694 0.25496,3.231476 0.96709,3.747846 0.87917,0.632969 2.40012,0.632969 4.39583,0.632969 2.39133,0 4.39584,-0.632969 5.275,-1.590752 a 19.385625,18.364442 0 0 0 2.40892,-3.872773 l 0.633,0.1166 c -0.211,1.116024 -1.13413,5.180354 -1.46821,6.254737 h -19.71971 v -0.558013 c 3.78921,-0.441412 4.12329,-0.916139 4.12329,-5.221997 z"
     id="path4799"
     inkscape:connector-curvature="0"
     style="fill:#ffffff;stroke-width:0.85569733" />
  <path
     d="m 257.76131,49.869208 c 0.80004,1.832279 3.15621,6.571221 7.78062,6.571221 3.20017,0 5.275,-1.790637 5.275,-5.097069 0,-4.022688 -3.40237,-5.296955 -5.67941,-6.41298 -1.64404,-0.832854 -6.93663,-2.63182 -6.93663,-7.21252 0,-3.864445 3.06829,-7.287476 8.53671,-7.287476 a 17.170125,16.265648 0 0 1 5.04642,0.916139 c 0.16704,1.390867 0.422,2.989948 0.75608,5.421884 l -0.633,0.116599 c -0.92312,-2.431936 -2.18912,-5.496839 -6.10141,-5.496839 -3.23534,0 -4.71234,2.073807 -4.71234,4.580698 0,2.948306 2.39133,4.380816 5.5915,5.780011 3.20017,1.399196 7.14763,3.03159 7.14763,7.770533 0,4.464099 -3.95625,7.928775 -9.25763,8.01206 a 15.825,14.991381 0 0 1 -3.95625,-0.674612 18.62075,17.639858 0 0 1 -2.23308,-0.832855 c -0.37804,-1.032739 -0.87917,-3.864445 -1.25721,-5.979895 l 0.633,-0.158243 z"
     id="path4801"
     inkscape:connector-curvature="0"
     style="fill:#ffffff;stroke-width:0.85569733" />
  <path
     d="m 95.555056,12.390755 v 8.58673 a 6.3915417,6.0548522 0 0 1 -0.19342,1.582423 2.716625,2.5735204 0 0 1 -0.62421,1.099369 2.6375,2.4985635 0 0 1 -1.12533,0.649626 5.6002917,5.3052832 0 0 1 -1.758333,0.216542 3.7628334,3.5646172 0 0 1 -1.758333,-0.34147 2.8133334,2.6651344 0 0 1 -1.072583,-0.899483 3.63975,3.4480176 0 0 1 -0.5275,-1.290925 8.9147501,8.4451446 0 0 1 -0.140667,-1.515795 h 1.21325 c 0,0.258185 0,0.558013 0.05275,0.91614 a 3.3584166,3.1815042 0 0 0 0.246167,1.016082 2.0660417,1.9572081 0 0 0 0.694541,0.832855 2.3561667,2.23205 0 0 0 1.415459,0.34147 3.1210416,2.9566334 0 0 0 1.160499,-0.174899 1.52975,1.4491668 0 0 0 0.72092,-0.549684 2.6375,2.4985635 0 0 0 0.36925,-0.957782 8.941125,8.4701302 0 0 0 0.1055,-1.399196 v -8.112003 z"
     id="path4803"
     inkscape:connector-curvature="0"
     style="fill:#ffffff;stroke-width:0.85569733" />
  <path
     d="m 98.579386,21.427227 a 3.4199583,3.239804 0 0 0 0.53629,1.091038 3.0595,2.8983336 0 0 0 0.931924,0.832855 2.6375,2.4985635 0 0 0 1.35392,0.316485 2.6990417,2.5568633 0 0 0 1.899,-0.599655 3.3320417,3.1565185 0 0 0 0.9495,-1.640723 h 1.14291 a 4.3958334,4.1642725 0 0 1 -1.29237,2.265363 3.8595417,3.6562312 0 0 1 -2.6375,0.832855 4.2375834,4.0143587 0 0 1 -1.855041,-0.358128 3.42875,3.2481325 0 0 1 -1.274793,-0.982767 4.510125,4.2725436 0 0 1 -0.72971,-1.449168 6.9717917,6.6045362 0 0 1 -0.23738,-1.740665 6.6113334,6.2630659 0 0 1 0.23738,-1.66571 4.721125,4.4724287 0 0 1 0.72971,-1.457494 3.6749166,3.4813318 0 0 1 1.274793,-1.032741 3.929875,3.7228596 0 0 1 1.855041,-0.391441 3.587,3.3980464 0 0 1 3.05071,1.507467 4.7475,4.4974143 0 0 1 0.69454,1.549109 7.1388333,6.7627785 0 0 1 0.17583,1.773981 h -6.989374 a 4.90575,4.6473281 0 0 0 0.16704,1.174324 m 5.494794,-3.20649 a 3.3144584,3.1398615 0 0 0 -0.57146,-0.97444 2.8309167,2.6817915 0 0 0 -0.87916,-0.68294 2.5759584,2.4402636 0 0 0 -1.19567,-0.258186 2.6375,2.4985635 0 0 0 -1.21325,0.258186 2.822125,2.6734629 0 0 0 -0.879174,0.68294 3.6045834,3.4147034 0 0 0 -0.58904,0.982769 5.0552084,4.7889134 0 0 0 -0.29012,1.14101 h 5.881624 a 4.009,3.7978165 0 0 0 -0.21979,-1.149339"
     id="path4805"
     inkscape:connector-curvature="0"
     style="fill:#ffffff;stroke-width:0.85569733" />
  <path
     d="m 107.34468,17.029754 a 2.6375,2.4985635 0 0 1 0.76488,-0.899482 3.2529167,3.0815617 0 0 1 1.13412,-0.516371 5.5475417,5.2553119 0 0 1 1.44184,-0.16657 6.409125,6.0715093 0 0 1 1.19566,0.108271 2.8836666,2.7317628 0 0 1 1.07259,0.408098 2.347375,2.2237215 0 0 1 0.77367,0.832855 3.2001666,3.0315904 0 0 1 0.29891,1.407524 v 4.564043 a 0.58025,0.54968397 0 0 0 0.65059,0.63297 0.87916667,0.8328545 0 0 0 0.35166,-0.06663 v 0.882826 l -0.34288,0.04997 h -0.37804 a 1.6528333,1.5657664 0 0 1 -0.67695,-0.108272 0.87916667,0.8328545 0 0 1 -0.39563,-0.308156 1.186875,1.1243536 0 0 1 -0.18462,-0.474727 4.2024167,3.9810445 0 0 1 -0.044,-0.607984 v 0 a 7.385,6.9959778 0 0 1 -0.60663,0.741241 3.033125,2.873348 0 0 1 -0.68574,0.541355 3.244125,3.0732331 0 0 1 -0.87917,0.333142 4.7650833,4.5140714 0 0 1 -1.15171,0.1166 4.5540834,4.3141863 0 0 1 -1.18687,-0.141586 2.6375,2.4985635 0 0 1 -0.96709,-0.449741 2.2506666,2.1321075 0 0 1 -0.65058,-0.782884 2.7517917,2.6068346 0 0 1 -0.23738,-1.124353 2.347375,2.2237215 0 0 1 0.422,-1.407524 2.6375,2.4985635 0 0 1 1.11655,-0.774554 6.3651666,6.0298666 0 0 1 1.56491,-0.374785 l 1.75833,-0.208213 c 0.23738,0 0.43959,-0.04997 0.61542,-0.08329 a 1.0637916,1.007754 0 0 0 0.43958,-0.174899 0.87916667,0.8328545 0 0 0 0.27254,-0.34147 1.5385416,1.4574953 0 0 0 0.0967,-0.566341 2.0396667,1.9322225 0 0 0 -0.18462,-0.874497 1.4682084,1.390867 0 0 0 -0.50992,-0.541355 2.05725,1.9488795 0 0 0 -0.75608,-0.274843 5.11675,4.8472132 0 0 0 -0.92313,-0.07495 2.79575,2.6484773 0 0 0 -1.75833,0.474727 1.9693333,1.8655941 0 0 0 -0.70333,1.524124 h -1.10775 a 3.6925,3.4979889 0 0 1 0.33408,-1.299254 m 5.54754,2.565192 a 0.633,0.59965523 0 0 1 -0.40441,0.266513 4.2112083,3.989373 0 0 1 -0.5275,0.1166 q -0.70334,0.116599 -1.45063,0.208214 a 7.9125,7.4956905 0 0 0 -1.36271,0.274841 2.6375,2.4985635 0 0 0 -1.01104,0.524699 1.3275417,1.2576103 0 0 0 -0.39562,0.97444 1.608875,1.5241238 0 0 0 0.16704,0.707926 1.7583333,1.665709 0 0 0 0.44837,0.533027 1.978125,1.8739226 0 0 0 0.65059,0.34147 2.4089166,2.2820213 0 0 0 0.75608,0.1166 3.8067917,3.60626 0 0 0 1.21325,-0.183228 2.954,2.7983911 0 0 0 1.01104,-0.533027 2.69025,2.5485347 0 0 0 0.94071,-1.982194 v -1.340895 z"
     id="path4807"
     inkscape:connector-curvature="0"
     style="fill:#ffffff;stroke-width:0.85569733" />
  <path
     d="m 117.5694,15.697188 v 1.48248 0 a 2.6375,2.4985635 0 0 1 1.12533,-1.25761 3.3056667,3.1315329 0 0 1 1.75833,-0.474727 4.4749584,4.2392294 0 0 1 1.59129,0.233199 2.5144167,2.3819638 0 0 1 1.02862,0.657955 2.6375,2.4985635 0 0 1 0.54509,1.041068 6.1541667,5.8299815 0 0 1 0.23738,1.382539 v 5.538482 h -1.10775 v -5.371911 a 5.2046667,4.9304987 0 0 0 -0.10551,-1.024411 2.2858333,2.1654217 0 0 0 -0.36924,-0.832855 1.7583333,1.665709 0 0 0 -0.71213,-0.549683 2.6375,2.4985635 0 0 0 -1.11654,-0.199886 2.822125,2.6734629 0 0 0 -1.18688,0.224871 2.5671666,2.4319351 0 0 0 -0.87916,0.616312 2.9891667,2.8317053 0 0 0 -0.58905,0.932797 4.035375,3.8228021 0 0 0 -0.21978,1.174325 v 4.997127 h -1.10775 v -8.570072 z"
     id="path4809"
     inkscape:connector-curvature="0"
     style="fill:#ffffff;stroke-width:0.85569733" />
  <path
     d="m 135.39889,24.042389 a 4.27275,4.0476729 0 0 1 -2.05725,0.483056 4.8354167,4.5806997 0 0 1 -1.50337,-0.216542 3.5166666,3.331418 0 0 1 -1.20446,-0.63297 3.0770834,2.9149908 0 0 1 -0.80004,-1.032739 3.7100834,3.514646 0 0 1 -0.29013,-1.432509 2.716625,2.5735204 0 0 1 0.28134,-1.165997 4.06175,3.8477878 0 0 1 0.7297,-0.966111 6.4706667,6.1298091 0 0 1 0.99346,-0.782884 11.956667,11.326821 0 0 1 1.09896,-0.616312 l -0.53629,-0.641298 a 6.3212084,5.9882238 0 0 1 -0.49234,-0.674612 4.5980417,4.3558291 0 0 1 -0.36924,-0.732912 2.4704583,2.3403211 0 0 1 -0.14946,-0.832855 2.4265,2.2986785 0 0 1 0.21979,-0.991096 2.452875,2.323664 0 0 1 0.59783,-0.757898 2.743,2.598506 0 0 1 0.87917,-0.491384 3.2617083,3.0898902 0 0 1 2.16275,0 2.7517917,2.6068346 0 0 1 0.87917,0.491384 2.400125,2.2736928 0 0 1 0.81762,1.748994 2.5759584,2.4402636 0 0 1 -0.211,0.999426 3.3408333,3.1648471 0 0 1 -0.55388,0.832855 5.1695,4.8971844 0 0 1 -0.78245,0.674612 q -0.43959,0.308155 -0.87917,0.591326 l 2.743,3.131533 a 3.1034583,2.9399764 0 0 0 0.29892,-0.874497 8.2641667,7.8288323 0 0 0 0.0703,-1.124354 h 1.10775 a 8.1147084,7.687247 0 0 1 -0.14946,1.290925 5.4684167,5.180355 0 0 1 -0.58904,1.557438 l 2.11,2.415278 h -1.38908 l -1.38909,-1.54911 a 5.275,4.997127 0 0 1 -1.63524,1.299253 m -3.09467,-5.172026 a 4.7123334,4.4641001 0 0 0 -0.82642,0.649626 3.4199583,3.239804 0 0 0 -0.59783,0.832855 2.3122083,2.1904074 0 0 0 -0.22858,0.97444 2.2155,2.0987934 0 0 0 0.22858,0.932797 2.6375,2.4985635 0 0 0 0.60662,0.749569 2.6375,2.4985635 0 0 0 0.87917,0.483055 3.0243333,2.8650195 0 0 0 1.01983,0.166572 2.90125,2.7484198 0 0 0 1.6968,-0.491385 5.0464167,4.7805848 0 0 0 1.27478,-1.207639 l -3.12983,-3.597931 q -0.45716,0.233199 -0.87916,0.516369 m 0.36924,-5.20534 a 1.4857917,1.4075241 0 0 0 -0.49233,1.14101 1.7583333,1.665709 0 0 0 0.14067,0.641299 4.0529583,3.8394593 0 0 0 0.35166,0.632969 q 0.21101,0.308156 0.45717,0.599655 l 0.45717,0.524699 c 0.21979,-0.133257 0.44837,-0.274843 0.67696,-0.433085 a 3.95625,3.7478453 0 0 0 0.6242,-0.524698 2.6375,2.4985635 0 0 0 0.45717,-0.649627 1.9605417,1.8572655 0 0 0 0.17583,-0.832854 1.4857917,1.4075241 0 0 0 -0.49233,-1.141011 1.8902083,1.7906372 0 0 0 -2.35617,0"
     id="path4811"
     inkscape:connector-curvature="0"
     style="fill:#ffffff;stroke-width:0.85569733" />
  <path
     d="m 149.83481,12.390755 4.92334,11.901491 h -1.28359 l -1.52975,-3.697874 h -5.72338 l -1.51216,3.697874 h -1.266 l 5.02883,-11.901491 z m 1.70558,7.237505 -2.4265,-6.104823 -2.51441,6.104823 z"
     id="path4813"
     inkscape:connector-curvature="0"
     style="fill:#ffffff;stroke-width:0.85569733" />
  <polygon
     points="156.25,16.4 154.99,16.4 154.99,2.11 156.25,2.11 "
     id="polygon4815"
     transform="matrix(0.87916667,0,0,0.8328545,19.67418,10.633432)"
     style="fill:#ffffff" />
  <path
     d="m 160.22656,21.427227 a 3.376,3.1981613 0 0 0 0.53629,1.091038 3.033125,2.873348 0 0 0 0.93192,0.832855 2.6375,2.4985635 0 0 0 1.35391,0.316485 2.6990417,2.5568633 0 0 0 1.899,-0.599655 3.32325,3.14819 0 0 0 0.9495,-1.640723 h 1.10775 a 4.3958334,4.1642725 0 0 1 -1.29237,2.265363 3.85075,3.6479027 0 0 1 -2.6375,0.832855 4.2375834,4.0143587 0 0 1 -1.85504,-0.358128 3.42875,3.2481325 0 0 1 -1.31875,-0.982767 4.5277083,4.2892006 0 0 1 -0.72971,-1.449168 6.9717917,6.6045362 0 0 1 -0.23738,-1.740665 6.6113334,6.2630659 0 0 1 0.23738,-1.66571 4.7387084,4.4890857 0 0 1 0.72971,-1.457494 3.6749166,3.4813318 0 0 1 1.27479,-1.032741 3.929875,3.7228596 0 0 1 1.85504,-0.391441 3.587,3.3980464 0 0 1 3.12105,1.507467 4.7650833,4.5140714 0 0 1 0.69453,1.549109 7.2179583,6.8377355 0 0 1 0.17584,1.773981 h -6.98938 a 4.8617916,4.6056853 0 0 0 0.16704,1.174324 m 5.486,-3.20649 a 3.2792916,3.1065472 0 0 0 -0.50991,-0.982769 2.8309167,2.6817915 0 0 0 -0.87917,-0.68294 2.5759584,2.4402636 0 0 0 -1.19566,-0.258185 2.6375,2.4985635 0 0 0 -1.21326,0.258185 2.8485,2.6984485 0 0 0 -0.87916,0.68294 3.6045834,3.4147034 0 0 0 -0.58905,0.982769 5.0991666,4.8305561 0 0 0 -0.29012,1.141011 h 5.87283 a 3.9035,3.697874 0 0 0 -0.21979,-1.149339"
     id="path4817"
     inkscape:connector-curvature="0"
     style="fill:#ffffff;stroke-width:0.85569733" />
  <polygon
     points="177.69,6.08 173.97,11.02 177.99,16.4 176.39,16.4 173.15,12.06 169.96,16.4 168.4,16.4 172.41,11.04 168.7,6.08 170.28,6.08 173.23,10 176.11,6.08 "
     id="polygon4819"
     transform="matrix(0.87916667,0,0,0.8328545,19.67418,10.633432)"
     style="fill:#ffffff" />
  <path
     d="m 177.68681,17.029754 a 2.6375,2.4985635 0 0 1 0.76488,-0.899482 3.2617083,3.0898902 0 0 1 1.13412,-0.516371 5.5563333,5.2636404 0 0 1 1.44184,-0.16657 6.4267083,6.0881664 0 0 1 1.19566,0.108271 2.8924584,2.7400913 0 0 1 1.07258,0.408098 2.3825417,2.2570357 0 0 1 0.77367,0.832855 3.21775,3.0482474 0 0 1 0.29892,1.407524 v 4.564043 a 0.58025,0.54968397 0 0 0 0.65058,0.63297 0.87916667,0.8328545 0 0 0 0.35167,-0.06663 v 0.882826 l -0.34288,0.04997 h -0.37804 a 1.661625,1.574095 0 0 1 -0.67696,-0.108272 0.87916667,0.8328545 0 0 1 -0.39562,-0.308156 1.239625,1.1743249 0 0 1 -0.18463,-0.474727 4.457375,4.2225723 0 0 1 0,-0.607984 v 0 a 7.385,6.9959778 0 0 1 -0.60662,0.741241 3.0507084,2.8900051 0 0 1 -0.68576,0.541355 3.2265417,3.056576 0 0 1 -0.87916,0.333142 4.7475,4.4974143 0 0 1 -1.15171,0.1166 4.5540834,4.3141863 0 0 1 -1.18687,-0.141586 2.6375,2.4985635 0 0 1 -0.96709,-0.449741 2.2330833,2.1154504 0 0 1 -0.65058,-0.782884 2.7517917,2.6068346 0 0 1 -0.23737,-1.124353 2.347375,2.2237215 0 0 1 0.42199,-1.407524 2.6375,2.4985635 0 0 1 1.11655,-0.774554 6.356375,6.021538 0 0 1 1.56491,-0.374785 l 1.75834,-0.208213 c 0.23737,0 0.43958,-0.04997 0.61541,-0.08329 a 1.0901667,1.0327396 0 0 0 0.43959,-0.174899 0.87916667,0.8328545 0 0 0 0.27254,-0.34147 1.5209583,1.4408383 0 0 0 0.0967,-0.566341 2.0396667,1.9322225 0 0 0 -0.18463,-0.874497 1.477,1.3991955 0 0 0 -0.50992,-0.541355 2.0660417,1.9572081 0 0 0 -0.75608,-0.274843 5.1255417,4.8555417 0 0 0 -0.92312,-0.07495 2.8045416,2.6568059 0 0 0 -1.75834,0.474727 1.9693333,1.8655941 0 0 0 -0.70333,1.524124 h -1.10775 a 3.6925,3.4979889 0 0 1 0.33409,-1.299254 m 5.54753,2.565192 a 0.62420834,0.5913267 0 0 1 -0.40441,0.266513 4.2551667,4.0310157 0 0 1 -0.5275,0.1166 c -0.47475,0.07495 -0.95829,0.149914 -1.45062,0.208214 a 7.9828334,7.5623189 0 0 0 -1.36272,0.274841 2.69025,2.5485347 0 0 0 -1.01103,0.524699 1.3275417,1.2576103 0 0 0 -0.39563,0.97444 1.608875,1.5241238 0 0 0 0.16704,0.707926 1.7583333,1.665709 0 0 0 0.44837,0.533027 1.9693333,1.8655941 0 0 0 0.65059,0.34147 2.3825417,2.2570357 0 0 0 0.75608,0.1166 3.8067917,3.60626 0 0 0 1.21325,-0.183228 2.954,2.7983911 0 0 0 1.01104,-0.533027 2.6375,2.4985635 0 0 0 0.94071,-1.982194 v -1.340895 z"
     id="path4821"
     inkscape:connector-curvature="0"
     style="fill:#ffffff;stroke-width:0.85569733" />
  <path
     d="m 187.91152,15.697188 v 1.48248 0 a 2.6375,2.4985635 0 0 1 1.12533,-1.25761 3.296875,3.1232044 0 0 1 1.75834,-0.474727 4.457375,4.2225723 0 0 1 1.59128,0.233199 2.4968334,2.3653068 0 0 1 1.02863,0.657955 2.58475,2.4485923 0 0 1 0.54509,1.041068 6.2860416,5.9549097 0 0 1 0.22858,1.382539 v 5.538482 h -1.10775 v -5.371911 a 5.275,4.997127 0 0 0 -0.1055,-1.024411 2.2770417,2.1570932 0 0 0 -0.36925,-0.832855 1.8110833,1.7156802 0 0 0 -0.71213,-0.549683 2.6375,2.4985635 0 0 0 -1.11654,-0.199886 2.8133334,2.6651344 0 0 0 -1.18687,0.224871 2.5671666,2.4319351 0 0 0 -0.87917,0.616312 2.9715834,2.8150482 0 0 0 -0.56266,0.932797 4.009,3.7978165 0 0 0 -0.2198,1.174325 v 4.997127 h -1.12533 v -8.570072 z"
     id="path4823"
     inkscape:connector-curvature="0"
     style="fill:#ffffff;stroke-width:0.85569733" />
  <path
     d="m 203.47277,24.300574 v -1.665709 0 a 2.6375,2.4985635 0 0 1 -0.51871,0.766227 3.3935834,3.2148183 0 0 1 -0.78246,0.591326 4.0265834,3.8144736 0 0 1 -0.94071,0.374785 3.6837084,3.4896604 0 0 1 -0.99346,0.133256 4.035375,3.8228021 0 0 1 -1.80228,-0.358127 3.6309584,3.4396891 0 0 1 -1.2748,-0.982768 4.4485833,4.2142438 0 0 1 -0.75608,-1.449167 7.0333334,6.662836 0 0 1 0,-3.481332 4.4397917,4.2059153 0 0 1 0.75608,-1.449167 3.6925,3.4979889 0 0 1 1.2748,-0.991097 3.9474584,3.7395167 0 0 1 1.80228,-0.366456 4.0705416,3.8561163 0 0 1 0.98467,0.1749 3.32325,3.14819 0 0 1 0.87917,0.358127 3.2265417,3.056576 0 0 1 0.74729,0.591327 2.6375,2.4985635 0 0 1 0.50112,0.832854 v 0 -4.988798 h 1.10775 v 11.909819 z m -6.08384,-2.97329 a 3.8683334,3.6645598 0 0 0 0.52751,1.174325 2.8836666,2.7317628 0 0 0 0.92312,0.832854 2.5407917,2.4069495 0 0 0 1.35392,0.324814 2.9627916,2.8067197 0 0 0 1.48579,-0.324814 2.927625,2.7734055 0 0 0 0.98467,-0.832854 3.63975,3.4480176 0 0 0 0.54508,-1.174325 5.9431667,5.6300964 0 0 0 0,-2.648478 3.6485417,3.4563462 0 0 0 -0.54508,-1.174325 2.8397084,2.69012 0 0 0 -2.47046,-1.165996 2.5495833,2.4152781 0 0 0 -1.35392,0.324813 2.9100417,2.7567484 0 0 0 -0.92312,0.832855 3.877125,3.6728883 0 0 0 -0.52751,1.174325 5.9167917,5.6051108 0 0 0 0,2.648478"
     id="path4825"
     inkscape:connector-curvature="0"
     style="fill:#ffffff;stroke-width:0.85569733" />
  <path
     d="m 207.64881,21.427227 a 3.455125,3.2731182 0 0 0 0.53629,1.091038 3.0770834,2.9149908 0 0 0 0.93192,0.832855 2.6375,2.4985635 0 0 0 1.35391,0.316485 2.69025,2.5485347 0 0 0 1.899,-0.599655 3.3408333,3.1648471 0 0 0 0.9583,-1.640723 h 1.08137 a 4.3958334,4.1642725 0 0 1 -1.29238,2.265363 3.8683334,3.6645598 0 0 1 -2.63749,0.832855 4.246375,4.0226872 0 0 1 -1.85505,-0.358128 3.4375416,3.2564611 0 0 1 -1.24841,-0.982767 4.5277083,4.2892006 0 0 1 -0.72971,-1.449168 6.9717917,6.6045362 0 0 1 -0.23738,-1.740665 6.6113334,6.2630659 0 0 1 0.23738,-1.66571 4.7387084,4.4890857 0 0 1 0.72971,-1.457494 3.6837084,3.4896604 0 0 1 1.27479,-1.032741 3.9386667,3.7311881 0 0 1 1.85504,-0.391441 3.587,3.3980464 0 0 1 3.12105,1.507467 4.7650833,4.5140714 0 0 1 0.69453,1.549109 7.2970833,6.9126923 0 0 1 0.17584,1.773981 h -6.98938 a 4.9497084,4.6889708 0 0 0 0.16704,1.174324 m 5.4948,-3.20649 a 3.4111667,3.2314755 0 0 0 -0.57146,-0.97444 2.8309167,2.6817915 0 0 0 -0.87917,-0.68294 2.5759584,2.4402636 0 0 0 -1.19567,-0.258186 2.6375,2.4985635 0 0 0 -1.21324,0.258186 2.8309167,2.6817915 0 0 0 -0.87917,0.68294 3.6045834,3.4147034 0 0 0 -0.58904,0.982769 5.1079584,4.8388846 0 0 0 -0.29013,1.14101 h 5.88162 a 4.0969167,3.8811019 0 0 0 -0.21979,-1.149339"
     id="path4827"
     inkscape:connector-curvature="0"
     style="fill:#ffffff;stroke-width:0.85569733" />
  <path
     d="m 217.21414,15.697188 v 2.015507 0 a 3.5166666,3.331418 0 0 1 1.30996,-1.615738 3.42875,3.2481325 0 0 1 2.11879,-0.516369 v 1.049397 a 3.3584166,3.1815042 0 0 0 -1.3715,0.191556 3.0946667,2.9316478 0 0 0 -1.06379,0.641298 3.0507084,2.8900051 0 0 0 -0.69454,0.991097 3.5166666,3.331418 0 0 0 -0.24616,1.25761 v 4.589028 h -1.09897 v -8.603386 z"
     id="path4829"
     inkscape:connector-curvature="0"
     style="fill:#ffffff;stroke-width:0.85569733" />
  <polygon
     points="246.91,2.11 246.91,16.4 245.55,16.4 245.55,9.48 237.06,9.48 237.06,16.4 235.7,16.4 235.7,2.11 237.06,2.11 237.06,8.32 245.55,8.32 245.55,2.11 "
     id="polygon4831"
     transform="matrix(0.87916667,0,0,0.8328545,19.67418,10.633432)"
     style="fill:#ffffff" />
  <path
     d="m 239.76477,21.427227 a 3.3847917,3.2064898 0 0 0 0.53629,1.091038 3.0155417,2.8566909 0 0 0 0.93192,0.832855 2.6375,2.4985635 0 0 0 1.35392,0.316485 2.6990417,2.5568633 0 0 0 1.899,-0.599655 3.3144584,3.1398615 0 0 0 0.95828,-1.640723 h 1.10775 a 4.3958334,4.1642725 0 0 1 -1.29237,2.265363 3.8595417,3.6562312 0 0 1 -2.6375,0.832855 4.246375,4.0226872 0 0 1 -1.85504,-0.358128 3.4375416,3.2564611 0 0 1 -1.27479,-0.982767 4.5540834,4.3141863 0 0 1 -0.72971,-1.449168 6.9014583,6.5379078 0 0 1 -0.23738,-1.740665 6.541,6.1964374 0 0 1 0.23738,-1.66571 4.773875,4.5223999 0 0 1 0.72971,-1.457494 3.6837084,3.4896604 0 0 1 1.27479,-1.032741 3.9386667,3.7311881 0 0 1 1.85504,-0.391441 3.5782083,3.3897178 0 0 1 3.12104,1.507467 4.7299167,4.4807572 0 0 1 0.69454,1.549109 7.147625,6.771107 0 0 1 0.17584,1.773981 h -6.98938 a 4.826625,4.5723712 0 0 0 0.16704,1.174324 m 5.49479,-3.20649 a 3.296875,3.1232044 0 0 0 -0.57145,-0.97444 2.822125,2.6734629 0 0 0 -0.87917,-0.68294 2.58475,2.4485923 0 0 0 -1.19567,-0.258186 2.6375,2.4985635 0 0 0 -1.21325,0.258186 2.8397084,2.69012 0 0 0 -0.87916,0.68294 3.6485417,3.4563462 0 0 0 -0.58905,0.982769 5.1870834,4.9138415 0 0 0 -0.29012,1.14101 h 5.88163 a 4.0969167,3.8811019 0 0 0 -0.2198,-1.149339"
     id="path4833"
     inkscape:connector-curvature="0"
     style="fill:#ffffff;stroke-width:0.85569733" />
  <path
     d="m 248.53885,17.029754 a 2.6375,2.4985635 0 0 1 0.76488,-0.899482 3.2617083,3.0898902 0 0 1 1.15171,-0.533027 5.5475417,5.2553119 0 0 1 1.44183,-0.166571 6.409125,6.0715093 0 0 1 1.19566,0.108271 2.8924584,2.7400913 0 0 1 1.07259,0.408099 2.3561667,2.23205 0 0 1 0.77366,0.832854 3.2089584,3.0399189 0 0 1 0.29892,1.407524 v 4.564043 a 0.58025,0.54968397 0 0 0 0.65058,0.632969 0.87916667,0.8328545 0 0 0 0.35167,-0.06663 v 0.882826 l -0.34287,0.04997 h -0.37804 a 1.6528333,1.5657664 0 0 1 -0.67696,-0.108271 0.87916667,0.8328545 0 0 1 -0.39563,-0.308156 1.21325,1.1493392 0 0 1 -0.18463,-0.474727 4.2112083,3.989373 0 0 1 -0.044,-0.607984 v 0 a 7.385,6.9959778 0 0 1 -0.60663,0.74124 3.00675,2.8483624 0 0 1 -0.68575,0.541356 3.21775,3.0482474 0 0 1 -0.87916,0.333142 4.773875,4.5223999 0 0 1 -1.15171,0.1166 4.562875,4.3225149 0 0 1 -1.18687,-0.141586 2.6375,2.4985635 0 0 1 -1.01105,-0.416428 2.2770417,2.1570932 0 0 1 -0.65058,-0.782882 2.7517917,2.6068346 0 0 1 -0.23737,-1.124354 2.347375,2.2237215 0 0 1 0.42199,-1.407524 2.6375,2.4985635 0 0 1 1.11655,-0.774555 6.3475833,6.0132095 0 0 1 1.56491,-0.374784 l 1.75834,-0.208214 c 0.23737,0 0.43958,-0.04997 0.61541,-0.08329 a 1.0725834,1.0160825 0 0 0 0.43959,-0.174899 0.87916667,0.8328545 0 0 0 0.27254,-0.341471 1.556125,1.4741525 0 0 0 0.0967,-0.566341 2.0220834,1.9155653 0 0 0 -0.18463,-0.874497 1.450625,1.37421 0 0 0 -0.50992,-0.541355 2.0660417,1.9572081 0 0 0 -0.75608,-0.274843 5.1343334,4.8638702 0 0 0 -0.92312,-0.07495 2.79575,2.6484773 0 0 0 -1.75834,0.474726 1.9693333,1.8655941 0 0 0 -0.70333,1.524124 h -1.10775 a 3.7100834,3.514646 0 0 1 0.33409,-1.299252 m 5.54753,2.565191 a 0.62420834,0.5913267 0 0 1 -0.40441,0.266513 4.1760417,3.9560589 0 0 1 -0.5275,0.1166 c -0.46596,0.07495 -0.9495,0.149914 -1.45062,0.208214 a 7.9125,7.4956905 0 0 0 -1.36272,0.274841 2.69025,2.5485347 0 0 0 -1.01103,0.524699 1.3275417,1.2576103 0 0 0 -0.39563,0.974439 1.608875,1.5241238 0 0 0 0.16704,0.707927 1.8286667,1.7323374 0 0 0 0.44837,0.533027 1.9869167,1.8822512 0 0 0 0.65059,0.34147 2.3825417,2.2570357 0 0 0 0.75608,0.1166 3.8067917,3.60626 0 0 0 1.21325,-0.183228 2.9891667,2.8317053 0 0 0 1.01104,-0.533027 2.6990417,2.5568633 0 0 0 0.94071,-1.982194 v -1.357552 z"
     id="path4835"
     inkscape:connector-curvature="0"
     style="fill:#ffffff;stroke-width:0.85569733" />
  <path
     d="m 258.69322,15.697188 v 2.015507 0 a 3.5166666,3.331418 0 0 1 1.30996,-1.615738 3.42875,3.2481325 0 0 1 2.1188,-0.516369 v 1.049397 a 3.3672084,3.1898327 0 0 0 -1.37151,0.191556 3.1034583,2.9399764 0 0 0 -1.06379,0.641298 3.0507084,2.8900051 0 0 0 -0.69454,0.991097 3.4639167,3.2814468 0 0 0 -0.24616,1.25761 v 4.589028 h -1.10775 v -8.603386 z"
     id="path4837"
     inkscape:connector-curvature="0"
     style="fill:#ffffff;stroke-width:0.85569733" />
  <path
     d="m 270.09602,24.300574 v -1.665709 0 a 2.6375,2.4985635 0 0 1 -0.51871,0.766227 3.3584166,3.1815042 0 0 1 -0.78246,0.591326 4.1057084,3.8894306 0 0 1 -0.94071,0.374785 3.7012917,3.5063174 0 0 1 -0.99346,0.133256 4.0441667,3.8311307 0 0 1 -1.80228,-0.358127 3.6221667,3.4313606 0 0 1 -1.2748,-0.982768 4.4485833,4.2142438 0 0 1 -0.75608,-1.449167 7.0333334,6.662836 0 0 1 0,-3.481332 4.4397917,4.2059153 0 0 1 0.75608,-1.449167 3.6837084,3.4896604 0 0 1 1.2748,-0.991097 3.9474584,3.7395167 0 0 1 1.80228,-0.366456 4.0793334,3.8644449 0 0 1 0.99346,0.1166 3.349625,3.1731757 0 0 1 0.87917,0.358127 3.1825833,3.0149333 0 0 1 0.74729,0.591327 2.6375,2.4985635 0 0 1 0.50113,0.832855 v 0 -4.930499 h 1.10775 v 11.909819 z m -6.07504,-2.97329 a 3.8859167,3.6812168 0 0 0 0.52749,1.174325 2.8924584,2.7400913 0 0 0 0.92313,0.832854 2.5407917,2.4069495 0 0 0 1.35392,0.324814 2.9715834,2.8150482 0 0 0 1.48579,-0.324814 2.9364167,2.781734 0 0 0 0.98466,-0.832854 3.6573333,3.4646747 0 0 0 0.54509,-1.174325 5.9431667,5.6300964 0 0 0 0,-2.648478 3.666125,3.4730032 0 0 0 -0.54509,-1.174325 2.8485,2.6984485 0 0 0 -2.47045,-1.165996 2.5495833,2.4152781 0 0 0 -1.35392,0.324813 2.9188334,2.765077 0 0 0 -0.92313,0.832855 3.8859167,3.6812168 0 0 0 -0.52749,1.174325 5.881625,5.5717966 0 0 0 0,2.648478"
     id="path4839"
     inkscape:connector-curvature="0"
     style="fill:#ffffff;stroke-width:0.85569733" />
  <path
     d="M 231.65885,31.579723 V 31.02171 h -10.92804 v 0.558013 c 3.44633,0.433084 3.78921,0.916139 3.78921,5.221997 v 14.341755 c 0,4.272543 -0.41321,4.897184 -3.51667,4.997127 -1.75833,-0.108271 -1.81108,-0.09161 -2.98038,-1.357553 a 55.053417,52.153348 0 0 1 -3.7892,-4.663986 c -1.25721,-1.757322 -2.98917,-4.464099 -3.70129,-5.655081 3.51666,-1.357554 5.67941,-3.822803 5.67941,-7.012635 a 6.1541667,5.8299815 0 0 0 -2.77817,-5.09707 c -1.60008,-0.999425 -3.95625,-1.357552 -6.60254,-1.357552 h -10.52362 v 0.558012 c 3.36721,0.433084 3.70129,0.91614 3.70129,5.221998 v 14.36674 c 0,4.305858 -0.33408,4.780585 -3.86833,5.221997 v 0.558013 h 10.93683 v -0.558013 c -3.44633,-0.441412 -3.78921,-0.916139 -3.78921,-5.221997 v -5.780011 h 1.85504 c 1.46821,0 2.27704,0.283171 3.02434,1.474154 1.266,1.990521 2.7342,4.539056 4.39583,6.812749 1.66162,2.273693 3.07709,3.139861 5.486,3.25646 1.25721,0.05831 2.41771,0 3.11225,0 h 10.47967 v -0.558012 c -3.44634,-0.441412 -3.78921,-0.91614 -3.78921,-5.221997 V 36.80172 c 0,-4.305858 0.33409,-4.780585 3.78921,-5.221997 m -26.375,12.984201 h -1.97813 V 33.087189 c 0,-0.832854 0.12309,-0.991096 0.37804,-1.074382 a 7.147625,6.771107 0 0 1 2.26825,-0.199885 c 3.51667,0 6.55859,1.83228 6.55859,6.213095 0,2.190407 -0.633,4.164272 -2.43529,5.496839 -1.17808,0.832855 -2.82213,1.03274 -4.80025,1.03274"
     id="path4841"
     inkscape:connector-curvature="0"
     style="fill:#ffffff;stroke-width:0.85569733" />
</svg>
