<svg id="c0d3c4b8-dd8f-4817-a215-50c6426c8f4b" data-name="White V" xmlns="http://www.w3.org/2000/svg" viewBox="0 0 289.09 65.96"><title>LibrarySearchLogo</title><path d="M40.48,16.17c0,.62,0,2.14,0,2.43h1c.95,0,2.28,0,2.81.52,1,1.09-.31,2.09-1.54,3.75-1.94,2.58-.73,4.26.54,3.36a33.27,33.27,0,0,1,3.12-2.12c1.62-.77,2.67,1.29,1,3.52-.67.92-1.95,2.07-2.78,3.3-1,1.47-.54,3.45,1.42,2,2.27-1.7,3.07.94.67,3.42-2.2,2.36-3.53,4.05-2.89,6.11.24.75.52,1.57.77,2.29a.41.41,0,0,0,.09.13l-.06.1a.49.49,0,0,0-.21,0H43l-1.57-4.25c-.24-.62-.56-1.06-2.06-1.52l-.75-.22a.59.59,0,0,0-.57.1l-1,.72c-.9.66-1.35.88-1.74.78a.61.61,0,0,1-.44-.69s0-.09,0-.11A9.52,9.52,0,0,0,36.3,35l.06-.08a.61.61,0,0,1,.76-.34c.38.13.64.55,1,1.6l.4,1.1a.63.63,0,0,0,.5.44l1.27.38a.33.33,0,0,1,.12.08l.09-.09a.4.4,0,0,1-.09-.13l-1-2.69A5.84,5.84,0,0,0,37.21,32c-1.15-.82-2.92-1.46-3.93-2-3.05-1.74-2.54-4.25-.8-4.15a14.21,14.21,0,0,1,3.26,1c1.87.69,1.93-1.62-.49-3.39-3.08-2.26-3.67-3.44-2.95-4.35.38-.49,1.44-.49,2.49-.49h.84c0-.61,0-1.77,0-2.44H15.34V18.6a14.81,14.81,0,0,1,1.5.06c1.7.15,3,1,4.34,4.45,1.18,3.12,10.94,27.83,11.94,30.46H43C43.85,51.39,53.38,26.92,54.93,23c1.38-3.49,2.85-4.17,4.49-4.31.39,0,.87,0,1.28,0V16.18ZM33.22,39c-1.29-.46-1.79-.86-1.94-2.2,0-.34,0-.8,0-.8s.26-.38.48-.64c.86-1,1.49-1.1,2.83-.78l1.16.25a8.86,8.86,0,0,1-.37,2.39,9,9,0,0,1-1,2.21L33.22,39m31.6,22.71H11.21V8H64.82Z" transform="translate(-10.5 -8.04)" fill="#fff"/><path d="M15.67,68.82H15l-.45,0h-.44v.33h.18c.33,0,.39.07.39.17a1.08,1.08,0,0,1-.09.38l-1.11,2.83-1.19-3a.92.92,0,0,1-.06-.2c0-.07.11-.14.31-.14h.22v-.33h-.47l-.64,0H10.5v.33h.13a.47.47,0,0,1,.54.37L13,74h.34l0,0L14,72.53l.14-.33c.37-.89,1.13-2.75,1.17-2.82a.31.31,0,0,1,.32-.22h.13v-.33h-.06Z" transform="translate(-10.5 -8.04)" fill="#fff"/><path d="M16.86,73.37a1.14,1.14,0,0,1,.08-.3h0l.07-.23.21-.69h1.52l.26.78a2.36,2.36,0,0,1,.14.49c0,.14-.26.15-.34.15h-.14v.33h.22l.86,0c.34,0,.66,0,1,0h.07v-.34h-.1a.39.39,0,0,1-.41-.25c-.08-.18-.15-.39-.22-.59l0-.13L18.75,69h0l-.07-.18c0-.06-.06-.05-.1,0H17.9v0c0,.17-.14.44-.23.68l0,.11-.09.25-1.13,3.26a.59.59,0,0,1-.56.42h-.1v.34h.07l.76,0,.84,0h.08v-.33h-.14c-.14,0-.47,0-.47-.2m.54-1.75L18,69.85l.58,1.77Z" transform="translate(-10.5 -8.04)" fill="#fff"/><path d="M26.9,68.84H25.42v.33h.22c.2,0,.54.08.54.61,0,0,0,2,0,2.53l-3.08-3.47H21.62v.31h.15a.52.52,0,0,1,.37.16.61.61,0,0,1,.17.44l0,3c0,.54-.09.85-.54.85H21.6v.32h2v-.33H23.4c-.46,0-.59-.17-.59-.77,0,0,0-2.2,0-2.76l3.55,4,0,0h.37v-.07a4.56,4.56,0,0,1,0-.71l0-3.23c0-.84.31-.84.54-.84h.17v-.32H26.9" transform="translate(-10.5 -8.04)" fill="#fff"/><path d="M33,69.51a3.11,3.11,0,0,0-2.1-.69H29.8l-.73,0h-.46v.33h.16c.29,0,.46.06.46.34v3.72c0,.32-.19.35-.43.35h-.16v.32H29l.81,0c.48,0,1,0,1.29,0A2.51,2.51,0,0,0,33,73.21a2.57,2.57,0,0,0,.81-1.86A2.37,2.37,0,0,0,33,69.51m-.34,2a2.17,2.17,0,0,1-.45,1.38,1.65,1.65,0,0,1-1.32.58c-.48,0-.68,0-.68-.5V69.28h.08l.35,0a2.07,2.07,0,0,1,1.43.43,2.29,2.29,0,0,1,.6,1.8" transform="translate(-10.5 -8.04)" fill="#fff"/><path d="M38.78,72.66c-.1.39-.21.58-.4.67a2.16,2.16,0,0,1-.87.09h0c-.5,0-.8,0-.8-.4V71.47h.81c.43,0,.46.18.51.61h0v.06l.31-.07v0c0-.29,0-.52,0-.77s0-.46,0-.75v-.06H38v.05c0,.38-.16.49-.53.49h-.81V69.3h.92c.71,0,.76.23.79.68V70l.31-.08v0a9.18,9.18,0,0,1,0-.92v-.18h-.89l-1,0-1,0H35v.33h.16c.29,0,.47.06.47.34v3.72c0,.3-.15.36-.42.36h-.16v.31h3.82v-.05l.06-.39a6.69,6.69,0,0,1,.12-.71h0v0l-.31-.08,0,.05Z" transform="translate(-10.5 -8.04)" fill="#fff"/><path d="M49.45,71.12a1.18,1.18,0,0,0,1-1.12,1,1,0,0,0-.38-.84,2.07,2.07,0,0,0-1.29-.34h-.51l-.62,0-.61,0h-.56v.33h.16c.29,0,.47.06.47.34v3.72c0,.29-.17.34-.47.34h-.16v.33h.6l.71,0,.68,0H49a1.9,1.9,0,0,0,1.22-.43,1.35,1.35,0,0,0,.51-1,1.2,1.2,0,0,0-.37-.88,1.7,1.7,0,0,0-.93-.43M48.4,71h-.29V69.24h.36c.44,0,.89.11.89.89,0,.57-.32.84-1,.84m1.28,1.48a1,1,0,0,1-1,1c-.5,0-.58-.07-.58-.54V71.38h.39a1.31,1.31,0,0,1,.85.25,1,1,0,0,1,.33.81" transform="translate(-10.5 -8.04)" fill="#fff"/><path d="M54.38,68.82h-1.1l-.57,0h-.54v.33h.16c.29,0,.46.06.46.34v3.72c0,.29-.17.34-.46.34h-.16v.33h.53l.58,0h1.17v-.33h-.16c-.29,0-.46-.06-.46-.34V69.5c0-.29.17-.34.46-.34h.16v-.33h-.06Z" transform="translate(-10.5 -8.04)" fill="#fff"/><path d="M59.8,72.64a1.19,1.19,0,0,1-.19.42.9.9,0,0,1-.62.34,4.14,4.14,0,0,1-.84,0c-.26,0-.37-.13-.37-.34V69.48c0-.32.16-.32.42-.32h.24v-.33H56.11v.33h.16c.3,0,.47.06.47.34v3.64c0,.38-.22.42-.47.42h-.16v.33h1l.94,0,.89,0h.94v0c.06-.27.1-.53.15-.77l.09-.48h-.32v0Z" transform="translate(-10.5 -8.04)" fill="#fff"/><path d="M44.77,73.17l-.54-.74-.37-.5a1.46,1.46,0,0,0-.4-.39,1.58,1.58,0,0,0,1-1.38,1.16,1.16,0,0,0-.54-1.06,2.31,2.31,0,0,0-1.21-.27H41.58l-.71,0h-.45v.33h.19c.24,0,.44,0,.44.48v3.6c0,.31-.32.33-.41.33h-.19v.32h2.34v-.33H42.6c-.32,0-.52,0-.52-.51V71.7h.32a.3.3,0,0,1,.25.14c.28.43.64,1,1.17,1.66a1,1,0,0,0,.91.39h.8v-.32h-.06a.71.71,0,0,1-.71-.4m-1.37-3a1.14,1.14,0,0,1-.27.84,1,1,0,0,1-.75.25l-.3,0v-2h0l.31,0a.9.9,0,0,1,1,1" transform="translate(-10.5 -8.04)" fill="#fff"/><path d="M65,68.81h-3.9l-.4,0h0l-.21,0h-.05v.08a3.07,3.07,0,0,1,0,.41v0l-.07.58V70h.34v-.05c.1-.51.12-.58.6-.59h1V73c0,.51-.16.54-.53.54h-.2v.33h.61l.65,0,.61,0H64v-.33h-.2c-.31,0-.53,0-.53-.55V69.33h1c.44,0,.46.39.47.6V70l.33-.08v-.61c0-.14,0-.3,0-.44V68.8Z" transform="translate(-10.5 -8.04)" fill="#fff"/><path d="M95.2,57.3c0,2.73.24,3.88,1.05,4.5,1,.76,2.58.76,4.74.76s4.45-.67,5.55-1.87A27.18,27.18,0,0,0,109.26,56l.72.14c-.24,1.34-1.29,6.22-1.67,7.51H87V63c4-.53,4.4-1.1,4.4-6.27V39.46c0-5.17-.38-5.74-4.4-6.27v-.67H99.7v.67c-4.11.53-4.5,1.1-4.5,6.27V57.3Z" transform="translate(-10.5 -8.04)" fill="#fff"/><path d="M120.36,56.68c0,5.17.38,5.74,4.3,6.27v.67H112.23V63c3.92-.53,4.31-1.1,4.31-6.27V39.46c0-5.17-.38-5.74-4.31-6.27v-.67h12.44v.67c-3.92.53-4.3,1.1-4.3,6.27V56.68Z" transform="translate(-10.5 -8.04)" fill="#fff"/><path d="M140.79,32.52c3.21,0,5.41.57,7,1.67a6,6,0,0,1,2.49,5.26c0,4.21-4,6.27-6.31,6.84v.1c4.4.62,8.32,3.2,8.32,8a8.07,8.07,0,0,1-4.45,7.37c-2.39,1.34-5.45,1.82-9.14,1.82H128V63c4-.53,4.4-1.1,4.4-6.27V39.46c0-5.17-.34-5.74-4.11-6.27v-.67Zm-4.64,13.73h3c4.59,0,6.89-2.1,6.89-6.27,0-2.87-1.2-6.51-6.84-6.51a7,7,0,0,0-2.63.24c-.29.14-.43.33-.43,1.29V46.25Zm0,1V57.88c0,3.78.62,4.69,4.11,4.69,4.07,0,7.46-2.25,7.46-7.51s-3.78-7.85-8.8-7.85Z" transform="translate(-10.5 -8.04)" fill="#fff"/><path d="M204.64,57.93c-1.91-4.88-4-11-6.36-17l-3.54-9.14-.62.19-9.81,25.21c-1.4,3.57-2.06,4.68-3.71,5.28-.65,0-1-.29-2-1.41a65.93,65.93,0,0,1-4.31-5.6c-1.43-2.11-3.4-5.36-4.21-6.79,4-1.63,6.46-4.59,6.46-8.42a7,7,0,0,0-3.16-6.12c-1.82-1.2-4.5-1.63-7.51-1.63H154v.67c3.82.53,4.21,1.1,4.21,6.27V56.68c0,5.17-.38,5.74-4.4,6.27v.67h12.44V63c-3.92-.53-4.3-1.1-4.3-6.27V49.75H164c1.67,0,2.58.33,3.44,1.77,1.44,2.39,3.11,5.45,5,8.18s3.43,3.71,6.5,3.9c.92.06,1.66,0,2.22,0H189V63l-1-.24c-2.58-.57-3-1.15-2.3-4,.48-1.91,1.67-5.65,2.25-7.13h10.24c1.39,3.68,2.78,7.42,3.11,8.56.43,1.48.29,2-1.44,2.39l-1.58.43v.67h11.43V63c-3-.72-3.59-1.1-5.12-5m-40.46-9.14h-2.25V35c0-1,.14-1.2.43-1.29a8.1,8.1,0,0,1,2.58-.24c4,0,7.46,2.2,7.46,7.46,0,2.63-.72,5-2.78,6.6-1.34,1-3.21,1.24-5.45,1.24m24.29,1.34L193,37.93h.09l4.59,12.2Z" transform="translate(-10.5 -8.04)" fill="#fff"/><path d="M259.31,39.46c0-5.17-.38-5.74-4.21-6.27v-.67h20.76c0,.81.29,4.31.53,7l-.72.14a10.78,10.78,0,0,0-2.15-4.4c-.72-.81-2.15-1.67-5.79-1.67h-3.16c-1.34,0-1.43.1-1.43,1.44V46.68H268c4.11,0,4.26-.48,5.21-4h.72v9.47h-.72c-.48-1.82-.77-2.82-1.44-3.35s-1.72-.67-3.78-.67h-4.83V57.3c0,2.73.29,3.88,1.1,4.5,1,.76,2.73.76,5,.76,2.72,0,5-.76,6-1.91A22.05,22.05,0,0,0,278,56l.72.14c-.24,1.34-1.29,6.22-1.67,7.51H254.62v-.67c4.31-.53,4.69-1.1,4.69-6.27V39.46Z" transform="translate(-10.5 -8.04)" fill="#fff"/><path d="M281.31,55.15c.91,2.2,3.59,7.89,8.85,7.89,3.64,0,6-2.15,6-6.12,0-4.83-3.87-6.36-6.46-7.7-1.87-1-7.89-3.16-7.89-8.66,0-4.64,3.49-8.75,9.71-8.75a19.53,19.53,0,0,1,5.74,1.1c.19,1.67.48,3.59.86,6.51l-.72.14c-1.05-2.92-2.49-6.6-6.94-6.6-3.68,0-5.36,2.49-5.36,5.5,0,3.54,2.72,5.26,6.36,6.94s8.13,3.64,8.13,9.33c0,5.36-4.5,9.52-10.53,9.62a18,18,0,0,1-4.5-.81,21.18,21.18,0,0,1-2.54-1c-.43-1.24-1-4.64-1.43-7.18l.72-.19Z" transform="translate(-10.5 -8.04)" fill="#fff"/><path d="M96.81,10.15V20.46a7.27,7.27,0,0,1-.22,1.9,3.09,3.09,0,0,1-.71,1.32,3,3,0,0,1-1.28.78,6.37,6.37,0,0,1-2,.26,4.28,4.28,0,0,1-2-.41,3.2,3.2,0,0,1-1.22-1.08,4.14,4.14,0,0,1-.6-1.55,10.14,10.14,0,0,1-.16-1.82H90c0,.31,0,.67.06,1.1a3.82,3.82,0,0,0,.28,1.22,2.35,2.35,0,0,0,.79,1,2.68,2.68,0,0,0,1.61.41,3.55,3.55,0,0,0,1.32-.21,1.74,1.74,0,0,0,.82-.66,3,3,0,0,0,.42-1.15,10.17,10.17,0,0,0,.12-1.68V10.15Z" transform="translate(-10.5 -8.04)" fill="#fff"/><path d="M100.25,21a3.89,3.89,0,0,0,.61,1.31,3.48,3.48,0,0,0,1.06,1,3,3,0,0,0,1.54.38,3.07,3.07,0,0,0,2.16-.72A3.79,3.79,0,0,0,106.7,21H108a5,5,0,0,1-1.47,2.72,4.39,4.39,0,0,1-3,1,4.82,4.82,0,0,1-2.11-.43,3.9,3.9,0,0,1-1.45-1.18,5.13,5.13,0,0,1-.83-1.74,7.93,7.93,0,0,1-.27-2.09,7.52,7.52,0,0,1,.27-2,5.37,5.37,0,0,1,.83-1.75,4.18,4.18,0,0,1,1.45-1.24,4.47,4.47,0,0,1,2.11-.47A4.08,4.08,0,0,1,107,15.63a5.4,5.4,0,0,1,.79,1.86,8.12,8.12,0,0,1,.2,2.13h-7.95a5.58,5.58,0,0,0,.19,1.41m6.25-3.85a3.77,3.77,0,0,0-.65-1.17,3.22,3.22,0,0,0-1-.82,2.93,2.93,0,0,0-1.36-.31,3,3,0,0,0-1.38.31,3.21,3.21,0,0,0-1,.82,4.1,4.1,0,0,0-.67,1.18,5.75,5.75,0,0,0-.33,1.37h6.69a4.56,4.56,0,0,0-.25-1.38" transform="translate(-10.5 -8.04)" fill="#fff"/><path d="M110.22,15.72a3,3,0,0,1,.87-1.08,3.7,3.7,0,0,1,1.29-.62,6.31,6.31,0,0,1,1.64-.2,7.29,7.29,0,0,1,1.36.13,3.28,3.28,0,0,1,1.22.49,2.67,2.67,0,0,1,.88,1,3.64,3.64,0,0,1,.34,1.69v5.48a.66.66,0,0,0,.74.76,1,1,0,0,0,.4-.08v1.06l-.39.06-.43,0a1.88,1.88,0,0,1-.77-.13,1,1,0,0,1-.45-.37,1.35,1.35,0,0,1-.21-.57,4.78,4.78,0,0,1-.05-.73h0a8.4,8.4,0,0,1-.69.89,3.45,3.45,0,0,1-.78.65,3.69,3.69,0,0,1-1,.4,5.42,5.42,0,0,1-1.31.14,5.18,5.18,0,0,1-1.35-.17,3,3,0,0,1-1.1-.54,2.56,2.56,0,0,1-.74-.94,3.13,3.13,0,0,1-.27-1.35,2.67,2.67,0,0,1,.48-1.69,3,3,0,0,1,1.27-.93,7.24,7.24,0,0,1,1.78-.45l2-.25c.27,0,.5-.06.7-.1a1.21,1.21,0,0,0,.5-.21,1,1,0,0,0,.31-.41,1.75,1.75,0,0,0,.11-.68,2.32,2.32,0,0,0-.21-1.05,1.67,1.67,0,0,0-.58-.65,2.34,2.34,0,0,0-.86-.33,5.82,5.82,0,0,0-1.05-.09,3.18,3.18,0,0,0-2,.57,2.24,2.24,0,0,0-.8,1.83h-1.26a4.2,4.2,0,0,1,.38-1.56m6.31,3.08a.72.72,0,0,1-.46.32,4.79,4.79,0,0,1-.6.14q-.8.14-1.65.25a9,9,0,0,0-1.55.33,3,3,0,0,0-1.15.63,1.51,1.51,0,0,0-.45,1.17,1.83,1.83,0,0,0,.19.85,2,2,0,0,0,.51.64,2.25,2.25,0,0,0,.74.41,2.74,2.74,0,0,0,.86.14,4.33,4.33,0,0,0,1.38-.22,3.36,3.36,0,0,0,1.15-.64,3.06,3.06,0,0,0,1.07-2.38V18.8Z" transform="translate(-10.5 -8.04)" fill="#fff"/><path d="M121.85,14.12V15.9h0a3,3,0,0,1,1.28-1.51,3.76,3.76,0,0,1,2-.57,5.09,5.09,0,0,1,1.81.28,2.86,2.86,0,0,1,1.17.79,3,3,0,0,1,.62,1.25A7,7,0,0,1,129,17.8v6.65h-1.26V18a5.92,5.92,0,0,0-.12-1.23,2.6,2.6,0,0,0-.42-1,2,2,0,0,0-.81-.66,3,3,0,0,0-1.27-.24,3.21,3.21,0,0,0-1.35.27,2.92,2.92,0,0,0-1,.74A3.4,3.4,0,0,0,122.1,17a4.59,4.59,0,0,0-.25,1.41v6h-1.26V14.12Z" transform="translate(-10.5 -8.04)" fill="#fff"/><path d="M142.13,24.14a4.86,4.86,0,0,1-2.34.58,5.5,5.5,0,0,1-1.71-.26,4,4,0,0,1-1.37-.76,3.5,3.5,0,0,1-.91-1.24,4.22,4.22,0,0,1-.33-1.72,3.09,3.09,0,0,1,.32-1.4,4.62,4.62,0,0,1,.83-1.16,7.36,7.36,0,0,1,1.13-.94A13.6,13.6,0,0,1,139,16.5l-.61-.77a7.19,7.19,0,0,1-.56-.81,5.23,5.23,0,0,1-.42-.88,2.81,2.81,0,0,1-.17-1,2.76,2.76,0,0,1,.25-1.19,2.79,2.79,0,0,1,.68-.91,3.12,3.12,0,0,1,1-.59,3.71,3.71,0,0,1,2.46,0,3.13,3.13,0,0,1,1,.59,2.73,2.73,0,0,1,.93,2.1,2.93,2.93,0,0,1-.24,1.2,3.8,3.8,0,0,1-.63,1,5.88,5.88,0,0,1-.89.81q-.5.37-1,.71l3.12,3.76a3.53,3.53,0,0,0,.34-1.05,9.4,9.4,0,0,0,.08-1.35h1.26a9.23,9.23,0,0,1-.17,1.55,6.22,6.22,0,0,1-.67,1.87l2.4,2.9h-1.58L144,22.58a6,6,0,0,1-1.86,1.56m-3.52-6.21a5.36,5.36,0,0,0-.94.78,3.89,3.89,0,0,0-.68,1,2.63,2.63,0,0,0-.26,1.17A2.52,2.52,0,0,0,137,22a3,3,0,0,0,.69.9,3,3,0,0,0,1,.58,3.44,3.44,0,0,0,1.16.2,3.3,3.3,0,0,0,1.93-.59,5.74,5.74,0,0,0,1.45-1.45l-3.56-4.32q-.52.28-1,.62m.42-6.25a1.69,1.69,0,0,0-.56,1.37,2,2,0,0,0,.16.77,4.61,4.61,0,0,0,.4.76q.24.37.52.72l.52.63c.25-.16.51-.33.77-.52a4.5,4.5,0,0,0,.71-.63,3,3,0,0,0,.52-.78,2.23,2.23,0,0,0,.2-1,1.69,1.69,0,0,0-.56-1.37,2.15,2.15,0,0,0-2.68,0" transform="translate(-10.5 -8.04)" fill="#fff"/><path d="M158.55,10.15l5.6,14.29h-1.46L160.95,20h-6.51l-1.72,4.44h-1.44L157,10.15Zm1.94,8.69-2.76-7.33-2.86,7.33Z" transform="translate(-10.5 -8.04)" fill="#fff"/><polygon points="156.25 16.4 154.99 16.4 154.99 2.11 156.25 2.11 156.25 16.4 156.25 16.4" fill="#fff"/><path d="M170.37,21a3.84,3.84,0,0,0,.61,1.31,3.45,3.45,0,0,0,1.06,1,3,3,0,0,0,1.54.38,3.07,3.07,0,0,0,2.16-.72A3.78,3.78,0,0,0,176.82,21h1.26a5,5,0,0,1-1.47,2.72,4.38,4.38,0,0,1-3,1,4.82,4.82,0,0,1-2.11-.43A3.9,3.9,0,0,1,170,23.11a5.15,5.15,0,0,1-.83-1.74,7.93,7.93,0,0,1-.27-2.09,7.52,7.52,0,0,1,.27-2,5.39,5.39,0,0,1,.83-1.75,4.18,4.18,0,0,1,1.45-1.24,4.47,4.47,0,0,1,2.11-.47,4.08,4.08,0,0,1,3.55,1.81,5.42,5.42,0,0,1,.79,1.86,8.21,8.21,0,0,1,.2,2.13h-7.95a5.53,5.53,0,0,0,.19,1.41m6.24-3.85A3.73,3.73,0,0,0,176,16a3.22,3.22,0,0,0-1-.82,2.93,2.93,0,0,0-1.36-.31,3,3,0,0,0-1.38.31,3.24,3.24,0,0,0-1,.82,4.1,4.1,0,0,0-.67,1.18,5.8,5.8,0,0,0-.33,1.37h6.68a4.44,4.44,0,0,0-.25-1.38" transform="translate(-10.5 -8.04)" fill="#fff"/><polygon points="168.7 6.08 170.28 6.08 173.23 10 176.11 6.08 177.69 6.08 173.97 11.02 177.99 16.4 176.39 16.4 173.15 12.06 169.96 16.4 168.4 16.4 172.41 11.04 168.7 6.08 168.7 6.08" fill="#fff"/><path d="M190.23,15.72a3,3,0,0,1,.87-1.08,3.71,3.71,0,0,1,1.29-.62,6.32,6.32,0,0,1,1.64-.2,7.31,7.31,0,0,1,1.36.13,3.29,3.29,0,0,1,1.22.49,2.71,2.71,0,0,1,.88,1,3.66,3.66,0,0,1,.34,1.69v5.48a.66.66,0,0,0,.74.76,1,1,0,0,0,.4-.08v1.06l-.39.06-.43,0a1.89,1.89,0,0,1-.77-.13,1,1,0,0,1-.45-.37,1.41,1.41,0,0,1-.21-.57,5.07,5.07,0,0,1,0-.73h0a8.4,8.4,0,0,1-.69.89,3.47,3.47,0,0,1-.78.65,3.67,3.67,0,0,1-1,.4,5.4,5.4,0,0,1-1.31.14,5.18,5.18,0,0,1-1.35-.17,3,3,0,0,1-1.1-.54,2.54,2.54,0,0,1-.74-.94,3.13,3.13,0,0,1-.27-1.35,2.67,2.67,0,0,1,.48-1.69,3,3,0,0,1,1.27-.93,7.23,7.23,0,0,1,1.78-.45l2-.25c.27,0,.5-.06.7-.1a1.24,1.24,0,0,0,.5-.21,1,1,0,0,0,.31-.41,1.73,1.73,0,0,0,.11-.68,2.32,2.32,0,0,0-.21-1.05,1.68,1.68,0,0,0-.58-.65,2.35,2.35,0,0,0-.86-.33,5.83,5.83,0,0,0-1.05-.09,3.19,3.19,0,0,0-2,.57,2.24,2.24,0,0,0-.8,1.83h-1.26a4.2,4.2,0,0,1,.38-1.56m6.31,3.08a.71.71,0,0,1-.46.32,4.84,4.84,0,0,1-.6.14c-.54.09-1.09.18-1.65.25a9.08,9.08,0,0,0-1.55.33,3.06,3.06,0,0,0-1.15.63,1.51,1.51,0,0,0-.45,1.17,1.83,1.83,0,0,0,.19.85,2,2,0,0,0,.51.64,2.24,2.24,0,0,0,.74.41,2.71,2.71,0,0,0,.86.14,4.33,4.33,0,0,0,1.38-.22,3.36,3.36,0,0,0,1.15-.64,3,3,0,0,0,1.07-2.38V18.8Z" transform="translate(-10.5 -8.04)" fill="#fff"/><path d="M201.86,14.12V15.9h0a3,3,0,0,1,1.28-1.51,3.75,3.75,0,0,1,2-.57,5.07,5.07,0,0,1,1.81.28,2.84,2.84,0,0,1,1.17.79,2.94,2.94,0,0,1,.62,1.25A7.15,7.15,0,0,1,209,17.8v6.65h-1.26V18a6,6,0,0,0-.12-1.23,2.59,2.59,0,0,0-.42-1,2.06,2.06,0,0,0-.81-.66,3,3,0,0,0-1.27-.24,3.2,3.2,0,0,0-1.35.27,2.92,2.92,0,0,0-1,.74,3.38,3.38,0,0,0-.64,1.12,4.56,4.56,0,0,0-.25,1.41v6H200.6V14.12Z" transform="translate(-10.5 -8.04)" fill="#fff"/><path d="M219.56,24.45v-2h0a3,3,0,0,1-.59.92,3.86,3.86,0,0,1-.89.71,4.58,4.58,0,0,1-1.07.45,4.19,4.19,0,0,1-1.13.16,4.59,4.59,0,0,1-2.05-.43,4.13,4.13,0,0,1-1.45-1.18,5.06,5.06,0,0,1-.86-1.74,8,8,0,0,1,0-4.18,5.05,5.05,0,0,1,.86-1.74,4.2,4.2,0,0,1,1.45-1.19,4.49,4.49,0,0,1,2.05-.44A4.63,4.63,0,0,1,217,14a3.78,3.78,0,0,1,1,.43,3.67,3.67,0,0,1,.85.71,3,3,0,0,1,.57,1h0V10.15h1.26V24.45Zm-6.92-3.57a4.4,4.4,0,0,0,.6,1.41,3.28,3.28,0,0,0,1.05,1,2.89,2.89,0,0,0,1.54.39,3.37,3.37,0,0,0,1.69-.39,3.33,3.33,0,0,0,1.12-1,4.14,4.14,0,0,0,.62-1.41,6.76,6.76,0,0,0,0-3.18,4.15,4.15,0,0,0-.62-1.41,3.23,3.23,0,0,0-2.81-1.4,2.9,2.9,0,0,0-1.54.39,3.31,3.31,0,0,0-1.05,1,4.41,4.41,0,0,0-.6,1.41,6.73,6.73,0,0,0,0,3.18" transform="translate(-10.5 -8.04)" fill="#fff"/><path d="M224.31,21a3.93,3.93,0,0,0,.61,1.31,3.5,3.5,0,0,0,1.06,1,3,3,0,0,0,1.54.38,3.06,3.06,0,0,0,2.16-.72A3.8,3.8,0,0,0,230.77,21H232a5,5,0,0,1-1.47,2.72,4.4,4.4,0,0,1-3,1,4.83,4.83,0,0,1-2.11-.43A3.91,3.91,0,0,1,224,23.11a5.15,5.15,0,0,1-.83-1.74,7.93,7.93,0,0,1-.27-2.09,7.52,7.52,0,0,1,.27-2,5.39,5.39,0,0,1,.83-1.75,4.19,4.19,0,0,1,1.45-1.24,4.48,4.48,0,0,1,2.11-.47,4.08,4.08,0,0,1,3.55,1.81,5.42,5.42,0,0,1,.79,1.86,8.3,8.3,0,0,1,.2,2.13h-7.95a5.63,5.63,0,0,0,.19,1.41m6.25-3.85a3.88,3.88,0,0,0-.65-1.17,3.22,3.22,0,0,0-1-.82,2.93,2.93,0,0,0-1.36-.31,3,3,0,0,0-1.38.31,3.22,3.22,0,0,0-1,.82,4.1,4.1,0,0,0-.67,1.18,5.81,5.81,0,0,0-.33,1.37h6.69a4.66,4.66,0,0,0-.25-1.38" transform="translate(-10.5 -8.04)" fill="#fff"/><path d="M235.19,14.12v2.42h0a4,4,0,0,1,1.49-1.94,3.9,3.9,0,0,1,2.41-.62v1.26a3.82,3.82,0,0,0-1.56.23,3.52,3.52,0,0,0-1.21.77,3.47,3.47,0,0,0-.79,1.19,4,4,0,0,0-.28,1.51v5.51H234V14.12Z" transform="translate(-10.5 -8.04)" fill="#fff"/><polygon points="237.06 2.11 237.06 8.32 245.55 8.32 245.55 2.11 246.91 2.11 246.91 16.4 245.55 16.4 245.55 9.48 237.06 9.48 237.06 16.4 235.7 16.4 235.7 2.11 237.06 2.11 237.06 2.11" fill="#fff"/><path d="M260.84,21a3.85,3.85,0,0,0,.61,1.31,3.43,3.43,0,0,0,1.06,1,3,3,0,0,0,1.54.38,3.07,3.07,0,0,0,2.16-.72A3.77,3.77,0,0,0,267.3,21h1.26a5,5,0,0,1-1.47,2.72,4.39,4.39,0,0,1-3,1,4.83,4.83,0,0,1-2.11-.43,3.91,3.91,0,0,1-1.45-1.18,5.18,5.18,0,0,1-.83-1.74,7.85,7.85,0,0,1-.27-2.09,7.44,7.44,0,0,1,.27-2,5.43,5.43,0,0,1,.83-1.75,4.19,4.19,0,0,1,1.45-1.24,4.48,4.48,0,0,1,2.11-.47,4.07,4.07,0,0,1,3.55,1.81,5.38,5.38,0,0,1,.79,1.86,8.13,8.13,0,0,1,.2,2.13h-7.95a5.49,5.49,0,0,0,.19,1.41m6.25-3.85a3.75,3.75,0,0,0-.65-1.17,3.21,3.21,0,0,0-1-.82,2.94,2.94,0,0,0-1.36-.31,3,3,0,0,0-1.38.31,3.23,3.23,0,0,0-1,.82,4.15,4.15,0,0,0-.67,1.18,5.9,5.9,0,0,0-.33,1.37h6.69a4.66,4.66,0,0,0-.25-1.38" transform="translate(-10.5 -8.04)" fill="#fff"/><path d="M270.82,15.72a3,3,0,0,1,.87-1.08A3.71,3.71,0,0,1,273,14a6.31,6.31,0,0,1,1.64-.2,7.29,7.29,0,0,1,1.36.13,3.29,3.29,0,0,1,1.22.49,2.68,2.68,0,0,1,.88,1,3.65,3.65,0,0,1,.34,1.69v5.48a.66.66,0,0,0,.74.76,1,1,0,0,0,.4-.08v1.06l-.39.06-.43,0a1.88,1.88,0,0,1-.77-.13,1,1,0,0,1-.45-.37,1.38,1.38,0,0,1-.21-.57,4.79,4.79,0,0,1-.05-.73h0a8.4,8.4,0,0,1-.69.89,3.42,3.42,0,0,1-.78.65,3.66,3.66,0,0,1-1,.4,5.43,5.43,0,0,1-1.31.14,5.19,5.19,0,0,1-1.35-.17A3,3,0,0,1,271,24a2.59,2.59,0,0,1-.74-.94,3.13,3.13,0,0,1-.27-1.35,2.67,2.67,0,0,1,.48-1.69,3,3,0,0,1,1.27-.93,7.22,7.22,0,0,1,1.78-.45l2-.25c.27,0,.5-.06.7-.1a1.22,1.22,0,0,0,.5-.21,1,1,0,0,0,.31-.41,1.77,1.77,0,0,0,.11-.68,2.3,2.3,0,0,0-.21-1.05,1.65,1.65,0,0,0-.58-.65,2.35,2.35,0,0,0-.86-.33,5.84,5.84,0,0,0-1.05-.09,3.18,3.18,0,0,0-2,.57,2.24,2.24,0,0,0-.8,1.83h-1.26a4.22,4.22,0,0,1,.38-1.56m6.31,3.08a.71.71,0,0,1-.46.32,4.75,4.75,0,0,1-.6.14c-.53.09-1.08.18-1.65.25a9,9,0,0,0-1.55.33,3.06,3.06,0,0,0-1.15.63,1.51,1.51,0,0,0-.45,1.17,1.83,1.83,0,0,0,.19.85,2.08,2.08,0,0,0,.51.64,2.26,2.26,0,0,0,.74.41,2.71,2.71,0,0,0,.86.14,4.33,4.33,0,0,0,1.38-.22,3.4,3.4,0,0,0,1.15-.64,3.07,3.07,0,0,0,1.07-2.38V18.8Z" transform="translate(-10.5 -8.04)" fill="#fff"/><path d="M282.37,14.12v2.42h0a4,4,0,0,1,1.49-1.94,3.9,3.9,0,0,1,2.41-.62v1.26a3.83,3.83,0,0,0-1.56.23,3.53,3.53,0,0,0-1.21.77,3.47,3.47,0,0,0-.79,1.19,3.94,3.94,0,0,0-.28,1.51v5.51h-1.26V14.12Z" transform="translate(-10.5 -8.04)" fill="#fff"/><path d="M295.34,24.45v-2h0a3,3,0,0,1-.59.92,3.82,3.82,0,0,1-.89.71,4.67,4.67,0,0,1-1.07.45,4.21,4.21,0,0,1-1.13.16,4.6,4.6,0,0,1-2.05-.43,4.12,4.12,0,0,1-1.45-1.18,5.06,5.06,0,0,1-.86-1.74,8,8,0,0,1,0-4.18,5.05,5.05,0,0,1,.86-1.74,4.19,4.19,0,0,1,1.45-1.19,4.49,4.49,0,0,1,2.05-.44,4.64,4.64,0,0,1,1.13.14,3.81,3.81,0,0,1,1,.43,3.62,3.62,0,0,1,.85.71,3,3,0,0,1,.57,1h0V10.15h1.26V24.45Zm-6.91-3.57a4.42,4.42,0,0,0,.6,1.41,3.29,3.29,0,0,0,1.05,1,2.89,2.89,0,0,0,1.54.39,3.38,3.38,0,0,0,1.69-.39,3.34,3.34,0,0,0,1.12-1,4.16,4.16,0,0,0,.62-1.41,6.76,6.76,0,0,0,0-3.18,4.17,4.17,0,0,0-.62-1.41,3.24,3.24,0,0,0-2.81-1.4,2.9,2.9,0,0,0-1.54.39,3.32,3.32,0,0,0-1.05,1,4.42,4.42,0,0,0-.6,1.41,6.69,6.69,0,0,0,0,3.18" transform="translate(-10.5 -8.04)" fill="#fff"/><path d="M251.62,33.19v-.67H239.19v.67c3.92.52,4.31,1.1,4.31,6.27V56.68c0,5.13-.47,5.88-4,6-2-.13-2.06-.11-3.39-1.63a62.62,62.62,0,0,1-4.31-5.6c-1.43-2.11-3.4-5.36-4.21-6.79,4-1.63,6.46-4.59,6.46-8.42a7,7,0,0,0-3.16-6.12c-1.82-1.2-4.5-1.63-7.51-1.63H211.41v.67c3.83.52,4.21,1.1,4.21,6.27V56.68c0,5.17-.38,5.74-4.4,6.27v.67h12.44v-.67c-3.92-.53-4.31-1.1-4.31-6.27V49.74h2.11c1.67,0,2.59.34,3.44,1.77,1.44,2.39,3.11,5.45,5,8.18s3.5,3.77,6.24,3.91c1.43.07,2.75,0,3.54,0h11.92v-.67c-3.92-.53-4.31-1.1-4.31-6.27V39.46c0-5.17.38-5.74,4.31-6.27m-30,15.59h-2.25V35c0-1,.14-1.19.43-1.29a8.13,8.13,0,0,1,2.58-.24c4,0,7.46,2.2,7.46,7.46,0,2.63-.72,5-2.77,6.6-1.34,1-3.21,1.24-5.46,1.24" transform="translate(-10.5 -8.04)" fill="#fff"/></svg>
